SplineFontDB: 3.2
FontName: Khaanaa-yellow
FullName: Khaanaa Yellow
FamilyName: Khaanaa
Weight: Regular
Copyright: Copyright 2024 The Khaanaa Font Authors
UComments: "2024-7-22: Created with FontForge (http://fontforge.org)"
Version: 0.001
ItalicAngle: 0
UnderlinePosition: -102
UnderlineWidth: 51
Ascent: 819
Descent: 205
InvalidEm: 0
UFOAscent: 819
UFODescent: -205
LayerCount: 2
Layer: 0 0 "Back" 1
Layer: 1 1 "public.default" 0 "glyphs"
StyleMap: 0x0040
FSType: 0
OS2Version: 0
OS2_WeightWidthSlopeOnly: 0
OS2_UseTypoMetrics: 0
CreationTime: 1732813800
ModificationTime: 1733028612
PfmFamily: 16
TTFWeight: 400
TTFWidth: 5
LineGap: 0
VLineGap: 0
OS2TypoAscent: 839
OS2TypoAOffset: 0
OS2TypoDescent: -210
OS2TypoDOffset: 0
OS2TypoLinegap: 0
OS2WinAscent: 839
OS2WinAOffset: 0
OS2WinDescent: 210
OS2WinDOffset: 0
HheadAscent: 839
HheadAOffset: 0
HheadDescent: -210
HheadDOffset: 0
OS2FamilyClass: 1283
OS2Vendor: 'anir'
MarkAttachClasses: 1
DEI: 91125
LangName: 1033 "" "" "" "" "" "Version 0.001" "" "" "" "" "" "" "" "Copyright 2024, The Khaanaa Font Authors+AAoA-This Font Software is licensed under the SIL Open Font License, Version 1.1.+AAoA-This license is available with a FAQ at:https://openfontlicense.org" "https://openfontlicense.org"
Encoding: Custom
UnicodeInterp: none
NameList: AGL For New Fonts
DisplaySize: -128
AntiAlias: 1
FitToEm: 0
WinInfo: 80 10 4
BeginPrivate: 0
EndPrivate
GridOrder2: 1
Grid
-512 296.96 m 1,0,-1
 1536 296.96 l 1025
-512 581.632 m 1,2,-1
 1536 581.632 l 1025
EndSplineSet
BeginChars: 65537 97

StartChar: A
Encoding: 65 65 0
GlifName: A_
Width: 752
VWidth: 0
GlyphClass: 2
Flags: W
LayerCount: 2
Fore
SplineSet
550 0 m 257,0,-1
 461 228.136672974 l 257,1,-1
 461 227 l 257,2,-1
 261.037719727 227 l 257,3,-1
 202 0 l 257,4,-1
 50 0 l 257,5,-1
 250 769 l 257,6,-1
 402 769 l 257,7,-1
 702 0 l 257,8,-1
 550 0 l 257,0,-1
406.827056885 367 m 257,9,-1
 341.200012207 535.223999023 l 257,10,-1
 297.448638916 367 l 257,11,-1
 406.827056885 367 l 257,9,-1
EndSplineSet
EndChar

StartChar: exclam
Encoding: 33 33 1
GlifName: exclam
Width: 252
VWidth: 0
GlyphClass: 2
Flags: W
LayerCount: 2
Fore
SplineSet
50 258 m 257,0,-1
 50 772 l 257,1,-1
 202 772 l 257,2,-1
 202 258 l 257,3,-1
 50 258 l 257,0,-1
50 -2 m 257,4,-1
 50 140 l 257,5,-1
 202 140 l 257,6,-1
 202 -2 l 257,7,-1
 50 -2 l 257,4,-1
EndSplineSet
EndChar

StartChar: quotedbl
Encoding: 34 34 2
GlifName: quotedbl
Width: 452
VWidth: 0
GlyphClass: 2
Flags: W
LayerCount: 2
Fore
SplineSet
250 532 m 261,0,-1
 250 789 l 257,1,-1
 402 789 l 257,2,-1
 402 532 l 257,3,-1
 250 532 l 261,0,-1
50 532 m 257,4,-1
 50 789 l 257,5,-1
 202 789 l 257,6,-1
 202 532 l 257,7,-1
 50 532 l 257,4,-1
EndSplineSet
EndChar

StartChar: quotesingle
Encoding: 39 39 3
GlifName: quotesingle
Width: 252
VWidth: 0
GlyphClass: 2
Flags: W
LayerCount: 2
Fore
SplineSet
50 532 m 261,0,-1
 50 789 l 257,1,-1
 202 789 l 257,2,-1
 202 532 l 257,3,-1
 50 532 l 261,0,-1
EndSplineSet
EndChar

StartChar: uniE5E0
Encoding: 58848 58848 4
Width: 1024
Flags: W
LayerCount: 2
Fore
SplineSet
911.59765625 -20.66015625 m 128,-1,1
 912.37490939 -30.4559890519 912.37490939 -30.4559890519 905.885742188 -37.8505859375 c 2,2,-1
 766.129882812 -197.0859375 l 2,3,4
 759.182599614 -205.002929688 759.182599614 -205.002929688 748.647460938 -205.002929688 c 0,5,6
 748.062988281 -205.002929688 748.062988281 -205.002929688 747.469726562 -204.973632812 c 0,7,8
 736.234789 -204.404931709 736.234789 -204.404931709 729.703125 -195.239257812 c 2,9,-1
 531.435546875 83.0224609375 l 2,10,11
 527.124172415 89.0748808756 527.124172415 89.0748808756 527.118164062 96.51171875 c 2,12,-1
 527.10546875 129.697265625 l 2,13,14
 526.8046875 779.609229244 526.8046875 779.609229244 526.8046875 795.731445312 c 0,15,16
 526.8046875 804.021623086 526.8046875 804.021623086 532.047059999 810.443369314 c 128,-1,17
 537.289432498 816.865115543 537.289432498 816.865115543 545.412109375 818.522460938 c 0,18,19
 564.016331426 822.345292247 564.016331426 822.345292247 571.465820312 804.850585938 c 2,20,-1
 729.296875 434.501953125 l 2,21,22
 746.318549885 396.881079752 746.318549885 396.881079752 750.325872157 352.932856064 c 128,-1,23
 754.333194429 308.984632376 754.333194429 308.984632376 746.813318516 268.836141128 c 128,-1,24
 739.293442604 228.687649881 739.293442604 228.687649881 731.428228114 202.106226425 c 128,-1,25
 723.563013625 175.52480297 723.563013625 175.52480297 713.8671875 152.390625 c 1,26,-1
 903.25390625 -4.5927734375 l 2,27,0
 910.824767879 -10.8615813509 910.824767879 -10.8615813509 911.59765625 -20.66015625 c 128,-1,1
478.584960938 818.522460938 m 0,28,29
 486.706877444 816.865121257 486.706877444 816.865121257 491.949264004 810.444240765 c 128,-1,30
 497.191650564 804.023360272 497.191650564 804.023360272 497.189453125 795.73828125 c 0,31,32
 497.189453125 781.72616896 497.189453125 781.72616896 496.887695312 129.704101562 c 2,33,-1
 496.875 96.517578125 l 2,34,35
 496.86899148 89.0820340426 496.86899148 89.0820340426 492.557617188 83.029296875 c 2,36,-1
 294.291015625 -195.233398438 l 2,37,38
 287.763501762 -204.397885696 287.763501762 -204.397885696 276.524414062 -204.966796875 c 0,39,40
 275.944893973 -204.997070312 275.944893973 -204.997070312 275.345703125 -204.997070312 c 0,41,42
 264.816994304 -204.997070312 264.816994304 -204.997070312 257.864257812 -197.079101562 c 2,43,-1
 118.107421875 -37.8447265625 l 2,44,45
 111.625169891 -30.4549898558 111.625169891 -30.4549898558 112.40234375 -20.66015625 c 128,-1,46
 113.181642783 -10.8623809611 113.181642783 -10.8623809611 120.74609375 -4.5927734375 c 2,47,-1
 310.129882812 152.390625 l 1,48,49
 300.434482687 175.527319217 300.434482687 175.527319217 292.570371376 202.10665827 c 128,-1,50
 284.706260064 228.685997323 284.706260064 228.685997323 277.186067833 268.835709284 c 128,-1,51
 269.665875602 308.985421244 269.665875602 308.985421244 273.672727333 352.933287909 c 128,-1,52
 277.679579063 396.881154573 277.679579063 396.881154573 294.700195312 434.501953125 c 2,53,-1
 452.530273438 804.850585938 l 2,54,55
 459.985696531 822.343447738 459.985696531 822.343447738 478.584960938 818.522460938 c 0,28,29
EndSplineSet
EndChar

StartChar: uni0000
Encoding: 0 0 5
Width: 512
VWidth: 1000
Flags: W
LayerCount: 2
Fore
SplineSet
512 800 m 2,0,1
 512 809 512 809 505.5 815.5 c 128,-1,2
 499 822 499 822 490 822 c 2,3,-1
 22 822 l 2,4,5
 13 822 13 822 6.5 815.5 c 128,-1,6
 0 809 0 809 0 800 c 2,7,-1
 -0 0 l 2,8,9
 0 -9 0 -9 6.5 -15.5 c 128,-1,10
 13 -22 13 -22 22 -22 c 2,11,-1
 490 -22 l 2,12,13
 499 -22 499 -22 505.5 -15.5 c 128,-1,14
 512 -9 512 -9 512 0 c 2,15,-1
 512 800 l 2,0,1
-5 800 m 2,16,17
 -5 811 -5 811 3 819 c 128,-1,18
 11 827 11 827 22 827 c 2,19,-1
 490 827 l 2,20,21
 501 827 501 827 509 819 c 128,-1,22
 517 811 517 811 517 800 c 2,23,-1
 517 -0 l 2,24,25
 517 -11 517 -11 509 -19 c 128,-1,26
 501 -27 501 -27 490 -27 c 2,27,-1
 22 -27 l 2,28,29
 11 -27 11 -27 3 -19 c 128,-1,30
 -5 -11 -5 -11 -5 0 c 2,31,-1
 -5 800 l 2,16,17
463 773 m 1,32,-1
 49 773 l 1,33,-1
 49 27 l 1,34,-1
 463 27 l 1,35,-1
 463 773 l 1,32,-1
468 775 m 2,36,-1
 468 25 l 2,37,38
 468 22 468 22 465 22 c 2,39,-1
 47 22 l 2,40,41
 44 22 44 22 44 25 c 2,42,-1
 44 775 l 2,43,44
 44 778 44 778 47 778 c 2,45,-1
 465 778 l 2,46,47
 468 778 468 778 468 775 c 2,36,-1
356 508 m 0,48,49
 356 504 356 504 353.5 485.5 c 128,-1,50
 351 467 351 467 343.5 444.5 c 128,-1,51
 336 422 336 422 326 422 c 2,52,-1
 246 422 l 2,53,54
 237 422 237 422 230.5 415.5 c 128,-1,55
 224 409 224 409 224 400 c 2,56,-1
 224 212 l 2,57,58
 224 203 224 203 230.5 196.5 c 128,-1,59
 237 190 237 190 246 190 c 128,-1,60
 255 190 255 190 261.5 196.5 c 128,-1,61
 268 203 268 203 268 212 c 2,62,-1
 268 375 l 2,63,64
 268 378 268 378 271 378 c 2,65,-1
 340 378 l 2,66,67
 368 378 368 378 384.5 428.5 c 128,-1,68
 401 479 401 479 401 508 c 0,69,70
 401 570 401 570 359 615 c 128,-1,71
 317 660 317 660 258 660 c 0,72,73
 229 660 229 660 189.5 644.5 c 128,-1,74
 150 629 150 629 150 604 c 2,75,-1
 150 570 l 2,76,77
 150 561 150 561 156.5 554.5 c 128,-1,78
 163 548 163 548 172 548 c 128,-1,79
 181 548 181 548 187.5 554.5 c 128,-1,80
 194 561 194 561 194 570 c 2,81,-1
 194 591 l 2,82,83
 194 601 194 601 220 608.5 c 128,-1,84
 246 616 246 616 258 616 c 0,85,86
 297 616 297 616 326.5 583 c 128,-1,87
 356 550 356 550 356 508 c 0,48,49
250 174 m 128,-1,89
 241 174 241 174 234.5 167.5 c 128,-1,90
 228 161 228 161 228 152 c 2,91,-1
 228 108 l 2,92,93
 228 99 228 99 234.5 92.5 c 128,-1,94
 241 86 241 86 250 86 c 128,-1,95
 259 86 259 86 265.5 92.5 c 128,-1,96
 272 99 272 99 272 108 c 2,97,-1
 272 152 l 2,98,99
 272 161 272 161 265.5 167.5 c 128,-1,88
 259 174 259 174 250 174 c 128,-1,89
250 81 m 128,-1,101
 239 81 239 81 231 89 c 128,-1,102
 223 97 223 97 223 108 c 2,103,-1
 223 152 l 2,104,105
 223 163 223 163 231 171 c 128,-1,106
 239 179 239 179 250 179 c 128,-1,107
 261 179 261 179 269 171 c 128,-1,108
 277 163 277 163 277 152 c 2,109,-1
 277 108 l 2,110,111
 277 97 277 97 269 89 c 128,-1,100
 261 81 261 81 250 81 c 128,-1,101
258 611 m 1,112,113
 230 611 230 611 199 590 c 1,114,-1
 199 570 l 2,115,116
 199 559 199 559 191 551 c 128,-1,117
 183 543 183 543 172 543 c 128,-1,118
 161 543 161 543 153 551 c 128,-1,119
 145 559 145 559 145 570 c 2,120,-1
 145 604 l 2,121,122
 145 631 145 631 185.5 648 c 128,-1,123
 226 665 226 665 258 665 c 0,124,125
 319 665 319 665 362.5 619 c 128,-1,126
 406 573 406 573 406 508 c 0,127,128
 406 477 406 477 388 425 c 128,-1,129
 370 373 370 373 340 373 c 2,130,-1
 273 373 l 1,131,-1
 273 212 l 2,132,133
 273 201 273 201 265 193 c 128,-1,134
 257 185 257 185 246 185 c 128,-1,135
 235 185 235 185 227 193 c 128,-1,136
 219 201 219 201 219 212 c 2,137,-1
 219 400 l 2,138,139
 219 411 219 411 227 419 c 128,-1,140
 235 427 235 427 246 427 c 2,141,-1
 325 427 l 1,142,143
 351 471 351 471 351 508 c 0,144,145
 351 531 351 531 343.5 548.5 c 128,-1,146
 336 566 336 566 319 578 c 128,-1,147
 302 590 302 590 291 596 c 128,-1,148
 280 602 280 602 258 611 c 1,112,113
EndSplineSet
EndChar

StartChar: numbersign
Encoding: 35 35 7
Width: 644
VWidth: 0
Flags: W
LayerCount: 2
Fore
SplineSet
149 692 m 1,0,-1
 301 692 l 1,1,-1
 287.917127072 618 l 1,2,-1
 435.917127072 618 l 1,3,-1
 449 692 l 1,4,-1
 601 692 l 1,5,-1
 587.917127072 618 l 1,6,-1
 599 618 l 1,7,-1
 599 466 l 1,8,-1
 561.044198895 466 l 1,9,-1
 543.718232044 368 l 1,10,-1
 599 368 l 1,11,-1
 599 216 l 1,12,-1
 516.845303867 216 l 1,13,-1
 505 149 l 1,14,-1
 353 149 l 1,15,-1
 364.845303867 216 l 1,16,-1
 216.845303867 216 l 1,17,-1
 205 149 l 1,18,-1
 53 149 l 1,19,-1
 64.8453038674 216 l 1,20,-1
 55 216 l 1,21,-1
 55 368 l 1,22,-1
 91.7182320442 368 l 1,23,-1
 109.044198895 466 l 1,24,-1
 55 466 l 1,25,-1
 55 618 l 1,26,-1
 135.917127072 618 l 1,27,-1
 149 692 l 1,0,-1
409.044198895 466 m 1,28,-1
 261.044198895 466 l 1,29,-1
 243.718232044 368 l 1,30,-1
 391.718232044 368 l 1,31,-1
 409.044198895 466 l 1,28,-1
EndSplineSet
EndChar

StartChar: dollar
Encoding: 36 36 8
Width: 512
VWidth: 0
Flags: W
LayerCount: 2
Fore
SplineSet
60 57 m 1,0,-1
 135 182 l 1,1,2
 143 176 143 176 157 167 c 0,3,4
 195 145 195 145 238 155 c 0,5,6
 245.868314854 156.829840664 245.868314854 156.829840664 253 159.563726878 c 1,7,-1
 253 309.608321509 l 1,8,9
 243.11843193 313.190022709 243.11843193 313.190022709 232 315 c 0,10,11
 183 342 183 342 147 375 c 128,-1,12
 111 408 111 408 90 449 c 128,-1,13
 69 490 69 490 72 539 c 128,-1,14
 75 588 75 588 106 639 c 0,15,16
 157.27940251 723.244732695 157.27940251 723.244732695 253 758.017191734 c 1,17,-1
 253 1030 l 1,18,-1
 332 1030 l 1,19,-1
 332 774.489432646 l 1,20,21
 402.770999209 776.564487889 402.770999209 776.564487889 458 727 c 0,22,23
 461 724 461 724 468.5 719.5 c 128,-1,24
 476 715 476 715 479 712 c 1,25,-1
 404 587 l 1,26,27
 392 597 392 597 382 602 c 0,28,29
 357.904652355 615.315850014 357.904652355 615.315850014 332 615.966567057 c 1,30,-1
 332 400.544512926 l 1,31,32
 361.041994523 383.132943792 361.041994523 383.132943792 383 365.5 c 0,33,34
 416 339 416 339 440.5 304 c 128,-1,35
 465 269 465 269 463.5 225 c 128,-1,36
 462 181 462 181 432 130 c 0,37,38
 397 71 397 71 332.5 32.5 c 0,39,40
 332.250015021 32.35078416 332.250015021 32.35078416 332 32.2021391306 c 2,41,-1
 332 -182 l 1,42,-1
 253 -182 l 1,43,-1
 253 -0.345529008978 l 1,44,45
 227.401709779 -6.30525030241 227.401709779 -6.30525030241 201.5 -6.5 c 0,46,47
 135 -7 135 -7 81 42 c 0,48,49
 78 45 78 45 70.5 49.5 c 128,-1,50
 63 54 63 54 60 57 c 1,0,-1
253 585.786987628 m 1,51,52
 243.970902505 576.723790576 243.970902505 576.723790576 237 565 c 0,53,54
 212 524 212 524 232.5 475 c 0,55,56
 240.602177193 455.633820369 240.602177193 455.633820369 253 442.672057836 c 1,57,-1
 253 585.786987628 l 1,51,52
EndSplineSet
EndChar

StartChar: percent
Encoding: 37 37 9
Width: 691
VWidth: 0
Flags: W
LayerCount: 2
Fore
SplineSet
204 483 m 261,0,-1
 202 483 l 257,1,-1
 195 483 l 257,2,3
 144 487 144 487 109.5 523.5 c 128,-1,4
 75 560 75 560 75 611 c 128,-1,5
 75 662 75 662 110 699 c 128,-1,6
 145 736 145 736 195 740 c 1,7,-1
 202 740 l 257,8,-1
 204 740 l 257,9,-1
 206 740 l 258,10,11
 260 740 260 740 297.5 702.5 c 128,-1,12
 335 665 335 665 335 611 c 0,13,14
 335 558 335 558 297.5 520.5 c 128,-1,15
 260 483 260 483 206 483 c 2,16,-1
 204 483 l 261,0,-1
205 665 m 260,17,18
 201 665 201 665 193 663 c 1,19,-1
 193 664 l 257,20,21
 174 660 174 660 162.5 645.5 c 128,-1,22
 151 631 151 631 151 611 c 0,23,24
 151 592 151 592 162.5 577.5 c 128,-1,25
 174 563 174 563 193 559 c 1,26,-1
 193 560 l 257,27,28
 201 558 201 558 205 558 c 128,-1,29
 209 558 209 558 217 560 c 1,30,-1
 217 559 l 257,31,32
 236 563 236 563 247.5 577.5 c 128,-1,33
 259 592 259 592 259 611 c 0,34,35
 259 631 259 631 247.5 645.5 c 128,-1,36
 236 660 236 660 217 664 c 1,37,-1
 217 663 l 257,38,39
 209 665 209 665 205 665 c 260,17,18
509 82 m 257,40,-1
 507 82 l 257,41,-1
 500 82 l 257,42,43
 449 86 449 86 414.5 122.5 c 128,-1,44
 380 159 380 159 380 210 c 128,-1,45
 380 261 380 261 415 298 c 128,-1,46
 450 335 450 335 500 339 c 1,47,-1
 507 339 l 257,48,-1
 509 339 l 257,49,-1
 511 339 l 258,50,51
 565 339 565 339 602.5 301.5 c 128,-1,52
 640 264 640 264 640 210 c 0,53,54
 640 157 640 157 602.5 119.5 c 128,-1,55
 565 82 565 82 511 82 c 2,56,-1
 509 82 l 257,40,-1
510 264 m 256,57,58
 506 264 506 264 498 262 c 1,59,-1
 498 263 l 257,60,61
 479 259 479 259 467.5 244.5 c 128,-1,62
 456 230 456 230 456 210 c 0,63,64
 456 191 456 191 467.5 176.5 c 128,-1,65
 479 162 479 162 498 158 c 1,66,-1
 498 159 l 257,67,68
 506 157 506 157 510 157 c 128,-1,69
 514 157 514 157 522 159 c 1,70,-1
 522 158 l 257,71,72
 541 162 541 162 552.5 176.5 c 128,-1,73
 564 191 564 191 564 210 c 0,74,75
 564 230 564 230 552.5 244.5 c 128,-1,76
 541 259 541 259 522 263 c 1,77,-1
 522 262 l 257,78,79
 514 264 514 264 510 264 c 256,57,58
535 818 m 257,80,-1
 641 757 l 257,81,-1
 156 -83 l 257,82,-1
 50 -22 l 257,83,-1
 535 818 l 257,80,-1
EndSplineSet
EndChar

StartChar: ampersand
Encoding: 38 38 10
Width: 649
VWidth: 0
Flags: W
LayerCount: 2
Fore
SplineSet
388.892578125 810 m 1,0,-1
 385.892578125 691 l 1,1,2
 367.885190878 689.55940902 367.885190878 689.55940902 303.38403954 654.774859549 c 128,-1,3
 238.882888203 619.990310078 238.882888203 619.990310078 223.892578125 605 c 0,4,5
 189.580078125 570.6875 189.580078125 570.6875 192.892578125 521 c 1,6,-1
 215.551757812 498.340820312 l 1,7,8
 262.937713662 518 262.937713662 518 314.892578125 518 c 0,9,10
 327.949847896 518 327.949847896 518 340.892578125 516.704101562 c 1,11,-1
 340.892578125 373 l 1,12,-1
 452.024414062 261.868164062 l 1,13,14
 565.203588334 354.224677318 565.203588334 354.224677318 568.892578125 355.131835938 c 1,15,-1
 568.892578125 202.295898438 l 2,16,17
 566.381987117 202.044309675 566.381987117 202.044309675 535.904296875 177.98828125 c 1,18,-1
 599.892578125 114 l 1,19,-1
 481.892578125 -4 l 1,20,-1
 405.688476562 72.955078125 l 1,21,22
 319.057914398 3 319.057914398 3 314.892578125 3 c 0,23,24
 207.719863071 3 207.719863071 3 132.306220598 78.211461126 c 128,-1,25
 56.892578125 153.422922252 56.892578125 153.422922252 56.892578125 260 c 0,26,27
 56.892578125 330.074134097 56.892578125 330.074134097 91.7412109375 389.995117188 c 1,28,-1
 75.892578125 406 l 1,29,30
 56.0828914257 441.615848291 56.0828914257 441.615848291 51.0662476366 479.787617687 c 128,-1,31
 46.0496038476 517.959387083 46.0496038476 517.959387083 55.7913726026 558.546809193 c 128,-1,32
 65.5331413577 599.134231302 65.5331413577 599.134231302 79.5012146776 633.193287853 c 128,-1,33
 93.4692879976 667.252344404 93.4692879976 667.252344404 116.892578125 712 c 0,34,35
 129.546582289 736.174048347 129.546582289 736.174048347 190.148116712 763.884356882 c 128,-1,36
 250.749651134 791.594665418 250.749651134 791.594665418 311.795893705 805.632570201 c 128,-1,37
 372.842136276 819.670474984 372.842136276 819.670474984 388.892578125 810 c 1,0,-1
321.578125 157.893554688 m 1,38,-1
 208.534179688 272.051757812 l 1,39,40
 207.892578125 266.071853858 207.892578125 266.071853858 207.892578125 260 c 0,41,42
 207.892578125 215.673701299 207.892578125 215.673701299 238.930976818 184.836850649 c 128,-1,43
 269.969375511 154 269.969375511 154 314.892578125 154 c 0,44,45
 315.978405899 154 315.978405899 154 321.578125 157.893554688 c 1,38,-1
EndSplineSet
EndChar

StartChar: parenleft
Encoding: 40 40 11
Width: 555
VWidth: 0
Flags: W
LayerCount: 2
Fore
SplineSet
432 744 m 257,0,1
 332 744 332 744 243 633.5 c 128,-1,2
 154 523 154 523 154 378 c 0,3,4
 154 232 154 232 243 121.5 c 128,-1,5
 332 11 332 11 432 11 c 1,6,-1
 505 -7 l 257,7,8
 471 -14 471 -14 432 -14 c 0,9,10
 274 -14 274 -14 162 101.5 c 128,-1,11
 50 217 50 217 50 380 c 128,-1,12
 50 543 50 543 162 658 c 128,-1,13
 274 773 274 773 432 773 c 0,14,15
 471 773 471 773 505 766 c 1,16,-1
 432 744 l 257,0,1
EndSplineSet
EndChar

StartChar: parenright
Encoding: 41 41 12
Width: 555
VWidth: 0
Flags: W
LayerCount: 2
Fore
SplineSet
123 744 m 261,0,-1
 50 766 l 257,1,2
 84 773 84 773 123 773 c 0,3,4
 281 773 281 773 393 658 c 128,-1,5
 505 543 505 543 505 380 c 128,-1,6
 505 217 505 217 393 101.5 c 128,-1,7
 281 -14 281 -14 123 -14 c 0,8,9
 84 -14 84 -14 50 -7 c 1,10,-1
 123 11 l 257,11,12
 223 11 223 11 312 121.5 c 128,-1,13
 401 232 401 232 401 378 c 0,14,15
 401 523 401 523 312 633.5 c 128,-1,16
 223 744 223 744 123 744 c 261,0,-1
EndSplineSet
EndChar

StartChar: asterisk
Encoding: 42 42 13
Width: 644
VWidth: 0
Flags: W
LayerCount: 2
Fore
SplineSet
594 496 m 1,0,-1
 594 344 l 1,1,-1
 505 344 l 1,2,-1
 568 281 l 1,3,-1
 461 174 l 1,4,-1
 398 237 l 1,5,-1
 398 149 l 1,6,-1
 246 149 l 1,7,-1
 246 237 l 1,8,-1
 183 174 l 1,9,-1
 76 281 l 1,10,-1
 139 344 l 1,11,-1
 50 344 l 1,12,-1
 50 496 l 1,13,-1
 139 496 l 1,14,-1
 76 559 l 1,15,-1
 183 666 l 1,16,-1
 246 603 l 1,17,-1
 246 692 l 1,18,-1
 398 692 l 1,19,-1
 398 603 l 1,20,-1
 461 666 l 1,21,-1
 568 559 l 1,22,-1
 505 496 l 1,23,-1
 594 496 l 1,0,-1
EndSplineSet
EndChar

StartChar: plus
Encoding: 43 43 14
Width: 644
VWidth: 0
Flags: W
LayerCount: 2
Fore
SplineSet
594 496 m 261,0,-1
 594 344 l 257,1,-1
 50 344 l 257,2,-1
 50 496 l 257,3,-1
 594 496 l 261,0,-1
246 692 m 261,4,-1
 398 692 l 257,5,-1
 398 149 l 257,6,-1
 246 149 l 257,7,-1
 246 692 l 261,4,-1
EndSplineSet
EndChar

StartChar: comma
Encoding: 44 44 15
Width: 252
VWidth: 0
Flags: W
LayerCount: 2
Fore
SplineSet
50 -2 m 5,0,-1
 50 140 l 1,1,-1
 202 140 l 1,2,-1
 202 -2 l 1,3,-1
 142 -134 l 1,4,-1
 84 -130 l 1,5,-1
 92.7671232877 -2 l 1,6,-1
 50 -2 l 5,0,-1
EndSplineSet
EndChar

StartChar: hyphen
Encoding: 45 45 16
Width: 644
VWidth: 0
Flags: W
LayerCount: 2
Fore
SplineSet
594 496 m 261,0,-1
 594 344 l 257,1,-1
 50 344 l 257,2,-1
 50 496 l 257,3,-1
 594 496 l 261,0,-1
EndSplineSet
EndChar

StartChar: period
Encoding: 46 46 17
Width: 252
VWidth: 0
Flags: W
LayerCount: 2
Fore
SplineSet
50 -2 m 257,0,-1
 50 140 l 257,1,-1
 202 140 l 257,2,-1
 202 -2 l 257,3,-1
 50 -2 l 257,0,-1
EndSplineSet
EndChar

StartChar: slash
Encoding: 47 47 18
Width: 691
VWidth: 0
Flags: W
LayerCount: 2
Fore
SplineSet
535 818 m 257,0,-1
 641 757 l 257,1,-1
 156 -83 l 257,2,-1
 50 -22 l 257,3,-1
 535 818 l 257,0,-1
EndSplineSet
EndChar

StartChar: zero
Encoding: 48 48 19
Width: 864
VWidth: 0
Flags: W
LayerCount: 2
Fore
SplineSet
737.5 380 m 256,0,1
 737.5 272.734611189 737.5 272.734611189 696.802362015 182.016986131 c 128,-1,2
 656.10472403 91.2993610722 656.10472403 91.2993610722 585.864304652 38.6496805361 c 128,-1,3
 515.623885274 -14 515.623885274 -14 432.5 -14 c 128,-1,4
 349.349843336 -14 349.349843336 -14 278.879127501 38.6352084302 c 128,-1,5
 208.408411665 91.2704168604 208.408411665 91.2704168604 167.454205833 182.031458236 c 128,-1,6
 126.5 272.792499613 126.5 272.792499613 126.5 380 c 0,7,8
 126.5 486.736866574 126.5 486.736866574 167.447158885 577.267549977 c 128,-1,9
 208.394317771 667.79823338 208.394317771 667.79823338 278.886174448 720.39911669 c 128,-1,10
 349.378031126 773 349.378031126 773 432.5 773 c 128,-1,11
 515.595789601 773 515.595789601 773 585.857280734 720.384681315 c 128,-1,12
 656.118771866 667.769362631 656.118771866 667.769362631 696.809385933 577.281985351 c 128,-1,13
 737.5 486.794608072 737.5 486.794608072 737.5 380 c 256,0,1
615.5 378 m 256,14,15
 615.5 474.997159091 615.5 474.997159091 562.153761062 543.498579545 c 128,-1,16
 508.807522124 612 508.807522124 612 432.5 612 c 128,-1,17
 356.097345133 612 356.097345133 612 302.298672566 543.437030075 c 128,-1,18
 248.5 474.87406015 248.5 474.87406015 248.5 378 c 0,19,20
 248.5 280.453007519 248.5 280.453007519 302.268382353 211.726503759 c 128,-1,21
 356.036764706 143 356.036764706 143 432.5 143 c 128,-1,22
 508.867647059 143 508.867647059 143 562.183823529 211.664772727 c 128,-1,23
 615.5 280.329545455 615.5 280.329545455 615.5 378 c 256,14,15
EndSplineSet
EndChar

StartChar: one
Encoding: 49 49 20
Width: 252
VWidth: 0
Flags: W
LayerCount: 2
Fore
SplineSet
50 774 m 257,0,-1
 202 774 l 257,1,-1
 202 -2 l 257,2,-1
 50 -2 l 257,3,-1
 50 774 l 257,0,-1
EndSplineSet
EndChar

StartChar: two
Encoding: 50 50 21
Width: 555
VWidth: 0
Flags: W
LayerCount: 2
Fore
SplineSet
130 586 m 4,0,1
 225.119395192 586 225.119395192 586 292.059697596 531.15360207 c 128,-1,2
 359 476.30720414 359 476.30720414 359 398.80078125 c 0,3,4
 359 322.213395133 359 322.213395133 293.092657639 274.106697567 c 128,-1,5
 227.185315279 226 227.185315279 226 130 226 c 0,6,7
 92.305724644 226 92.305724644 226 57 235.682617188 c 1,8,-1
 54 0 l 1,9,-1
 557 4.80078125 l 1,10,-1
 557 126.400390625 l 1,11,-1
 281.891601562 123.775390625 l 1,12,13
 385.779334977 157.596219805 385.779334977 157.596219805 448.889667489 231.310770099 c 128,-1,14
 512 305.025320392 512 305.025320392 512 400.400390625 c 0,15,16
 512 485.791462504 512 485.791462504 460.888783151 558.214792709 c 128,-1,17
 409.777566302 630.638122915 409.777566302 630.638122915 321.777883516 672.719452082 c 128,-1,18
 233.778200729 714.80078125 233.778200729 714.80078125 130 714.80078125 c 0,19,20
 93.0106248426 714.80078125 93.0106248426 714.80078125 57 709.06640625 c 1,21,-1
 57 576.325195312 l 1,22,23
 92.3156722692 586 92.3156722692 586 130 586 c 4,0,1
EndSplineSet
EndChar

StartChar: three
Encoding: 51 51 22
Width: 435
VWidth: 0
Flags: W
LayerCount: 2
Fore
SplineSet
50 -5.0703125 m 5,0,-1
 50 118.7265625 l 1,1,2
 62.7393371798 116.189453125 62.7393371798 116.189453125 76 116.189453125 c 0,3,4
 142.334562505 116.189453125 142.334562505 116.189453125 188.167281252 141.167753415 c 128,-1,5
 234 166.146053704 234 166.146053704 234 202.049804688 c 0,6,7
 234 235.744589457 234 235.744589457 207.092500342 260.101022784 c 128,-1,8
 180.185000684 284.457456111 180.185000684 284.457456111 139.595703125 288.15234375 c 0,9,10
 133.323780756 287.91015625 133.323780756 287.91015625 127 287.91015625 c 128,-1,11
 120.743652343 287.91015625 120.743652343 287.91015625 114.55859375 288.149414062 c 0,12,13
 107.683174169 287.513663247 107.683174169 287.513663247 101 286.1796875 c 1,14,-1
 101 288.959960938 l 1,15,-1
 101 409.979492188 l 1,16,-1
 101 412.756835938 l 1,17,18
 107.682992523 411.42585091 107.682992523 411.42585091 114.557617188 410.790039062 c 0,19,20
 120.781603486 411.030273438 120.781603486 411.030273438 126.999999999 411.030273438 c 128,-1,21
 133.298970177 411.030273438 133.298970177 411.030273438 139.59765625 410.787109375 c 0,22,23
 180.124100892 414.474137624 180.124100892 414.474137624 207.062050446 438.686342747 c 128,-1,24
 234 462.898547871 234 462.898547871 234 496.080078125 c 0,25,26
 234 532.529820992 234 532.529820992 189.96249299 557.639910496 c 128,-1,27
 145.92498598 582.75 145.92498598 582.75 82 582.75 c 0,28,29
 68.7315538208 582.75 68.7315538208 582.75 56 580.209960938 c 1,30,-1
 56 704.009765625 l 1,31,32
 68.9448565055 705.060546875 68.9448565055 705.060546875 82 705.060546875 c 0,33,34
 207.956087679 705.060546875 207.956087679 705.060546875 296.47804384 644.00658042 c 128,-1,35
 385 582.952613964 385 582.952613964 385 496.080078125 c 0,36,37
 385 410.209163199 385 410.209163199 310.310546875 349.418945312 c 1,38,39
 385 288.463034908 385 288.463034908 385 202.049804688 c 128,-1,40
 385 115.722633812 385 115.722633812 294.678994439 54.801258312 c 128,-1,41
 204.357988879 -6.1201171875 204.357988879 -6.1201171875 76 -6.1201171875 c 0,42,43
 62.9328259604 -6.1201171875 62.9328259604 -6.1201171875 50 -5.0703125 c 5,0,-1
EndSplineSet
EndChar

StartChar: four
Encoding: 52 52 23
Width: 752
VWidth: 0
Flags: W
LayerCount: 2
Fore
SplineSet
393.763671875 0 m 257,0,-1
 393.763671875 192.014648438 l 257,1,-1
 392.764648438 191.014648438 l 257,2,-1
 57.7646484375 191.014648438 l 257,3,-1
 379.764648438 774 l 257,4,-1
 522.765625 774 l 257,5,-1
 522.765625 0 l 257,6,-1
 393.763671875 0 l 257,0,-1
385.764648438 341.014648438 m 257,7,-1
 385.764648438 521.014648438 l 257,8,-1
 287.764648438 344.014648438 l 257,9,-1
 385.764648438 341.014648438 l 257,7,-1
EndSplineSet
EndChar

StartChar: five
Encoding: 53 53 24
Width: 384
VWidth: 0
Flags: W
LayerCount: 2
Fore
SplineSet
50 4 m 1,0,-1
 50 157 l 1,1,2
 62 154 62 154 76 154 c 0,3,4
 121 154 121 154 152 185 c 128,-1,5
 183 216 183 216 183 260 c 0,6,7
 183 305 183 305 152 336 c 128,-1,8
 121 367 121 367 76 367 c 0,9,10
 62 367 62 367 50 364 c 1,11,-1
 50 397 l 1,12,-1
 50 517 l 1,13,-1
 50 773 l 1,14,-1
 51 773 l 1,15,-1
 51 774 l 1,16,-1
 368 774 l 1,17,-1
 367 622 l 1,18,-1
 202 622 l 1,19,-1
 202 485 l 1,20,21
 262 451 262 451 298 391.5 c 128,-1,22
 334 332 334 332 334 260 c 0,23,24
 334 153 334 153 258.5 78 c 128,-1,25
 183 3 183 3 76 3 c 0,26,27
 59 3 59 3 50 4 c 1,0,-1
EndSplineSet
EndChar

StartChar: six
Encoding: 54 54 25
Width: 729
VWidth: 0
Flags: W
LayerCount: 2
Fore
SplineSet
432 612 m 0,0,1
 346.944850961 612.000000046 346.944850961 612.000000046 283.125106394 555.919622848 c 128,-1,2
 219.305361828 499.839245651 219.305361828 499.839245651 205.969256783 415.812511233 c 1,3,4
 275.638270393 492.391455767 275.638270393 492.391455767 379.12890625 499.397460938 c 0,5,6
 386.736261894 499.91223295 386.736261894 499.91223295 393.451171875 499.9765625 c 0,7,8
 395.812500001 500 395.812500001 500 397 500 c 0,9,10
 397.452636718 500 397.452636718 500 397.905273438 499.998046875 c 0,11,12
 398.92578125 500 398.92578125 500 401 500 c 0,13,14
 492.447181824 500 492.447181824 500 562.577684017 443.484015454 c 128,-1,15
 632.708186211 386.968030909 632.708186211 386.968030909 652.516601562 300 c 0,16,17
 659 271.53422509 659 271.53422509 659 242 c 0,18,19
 659 201.928527857 659 201.928527857 647 164.138671875 c 0,20,21
 617.115809726 70.0197931381 617.115809726 70.0197931381 531.387759945 20.0410419676 c 1,22,23
 482.357734884 -14 482.357734884 -14 432 -14 c 0,24,25
 428.378389665 -13.9999929095 428.378389665 -13.9999929095 424.772687632 -13.9310623118 c 0,26,27
 412.947888819 -15 412.947888819 -15 401 -15 c 0,28,29
 400.474975586 -15 400.474975586 -15 399.443969727 -14.9990234375 c 128,-1,30
 398.412963867 -14.998046875 398.412963867 -14.998046875 397.90625 -14.998046875 c 0,31,32
 397.755371094 -14.998046875 397.755371094 -14.998046875 397.453125 -14.9990234375 c 0,33,34
 395.222167969 -15 395.222167969 -15 393.451171875 -14.9765625 c 0,35,36
 384.830662851 -14.8623020827 384.830662851 -14.8623020827 379.133789062 -14.3974609375 c 0,37,38
 299.349935096 -7.8799173943 299.349935096 -7.8799173943 237.078901235 40.9840052466 c 1,39,40
 151.5239522 93.3701156496 151.5239522 93.3701156496 100.7619761 183.417897163 c 128,-1,41
 50 273.465678677 50 273.465678677 50 380 c 0,42,43
 50 543 50 543 162 658 c 128,-1,44
 274 773 274 773 432 773 c 0,45,46
 514.994981961 773 514.994981961 773 551 765.83203125 c 1,47,-1
 551 599.90625 l 1,48,49
 535.610251423 605.176154525 535.610251423 605.176154525 496.043805665 608.588077263 c 128,-1,50
 456.477359906 612 456.477359906 612 432 612 c 0,0,1
382.955078125 366.982421875 m 0,51,52
 371.723916205 367.180509577 371.723916205 367.180509577 359 364 c 1,53,-1
 359 364.828125 l 1,54,55
 321.869123284 357.35483224 321.869123284 357.35483224 297.934561642 328.186375552 c 128,-1,56
 274 299.017918865 274 299.017918865 274 260 c 0,57,58
 273.99999935 205.682868856 273.99999935 205.682868856 317.542301242 174.228595904 c 0,59,60
 333.272774304 164.931981886 333.272774304 164.931981886 350.222734557 158.317562061 c 0,61,62
 354.557216768 157.06286095 354.557216768 157.06286095 359 156.169921875 c 1,63,-1
 359 157 l 1,64,65
 370.062365876 154.234776204 370.062365876 154.234776204 382.955078125 154.017578125 c 0,66,67
 395.210211941 154.233654022 395.210211941 154.233654022 407 157.131835938 c 1,68,-1
 407 156.169921875 l 1,69,70
 444.079300145 163.622359802 444.079300145 163.622359802 468.039650073 192.602599799 c 128,-1,71
 492 221.582839796 492 221.582839796 492 260 c 0,72,73
 492 299.017915596 492 299.017915596 468.065434275 328.186373579 c 128,-1,74
 444.130868549 357.354831561 444.130868549 357.354831561 407 364.828125 c 1,75,-1
 407 363.864257812 l 1,76,77
 395.216720521 366.766159248 395.216720521 366.766159248 382.955078125 366.982421875 c 0,51,52
EndSplineSet
EndChar

StartChar: seven
Encoding: 55 55 26
Width: 610
VWidth: 0
Flags: W
LayerCount: 2
Fore
SplineSet
213 0 m 257,0,-1
 51 0 l 257,1,-1
 389 610 l 257,2,-1
 50 610 l 257,3,-1
 50 762 l 257,4,-1
 560 762 l 257,5,-1
 560 610 l 257,6,-1
 213 0 l 257,0,-1
EndSplineSet
EndChar

StartChar: eight
Encoding: 56 56 27
Width: 616
VWidth: 0
Flags: W
LayerCount: 2
Fore
SplineSet
309.954681396 366.982788086 m 256,0,1
 297.062463827 366.765593127 297.062463827 366.765593127 286 364 c 1,2,-1
 286 364.828063965 l 257,3,4
 248.869123284 357.354775556 248.869123284 357.354775556 224.934561642 328.186335851 c 128,-1,5
 201 299.017896147 201 299.017896147 201 260 c 0,6,7
 201 221.582847844 201 221.582847844 224.96034584 192.60261765 c 128,-1,8
 248.920691681 163.622387456 248.920691681 163.622387456 286 156.169952393 c 1,9,-1
 286 157 l 257,10,11
 297.062196755 154.234450811 297.062196755 154.234450811 309.954711914 154.017227173 c 0,12,13
 322.210032381 154.233331655 322.210032381 154.233331655 334 157.131896973 c 1,14,-1
 334 156.169952393 l 257,15,16
 371.079300145 163.622388129 371.079300145 163.622388129 395.039650073 192.602619608 c 128,-1,17
 419 221.582851088 419 221.582851088 419 260 c 0,18,19
 419 299.017892878 419 299.017892878 395.065434275 328.186333878 c 128,-1,20
 371.130868549 357.354774877 371.130868549 357.354774877 334 364.828063965 c 1,21,-1
 334 363.864593506 l 257,22,23
 322.216526098 366.766523343 322.216526098 366.766523343 309.954681396 366.982788086 c 256,0,1
309.955078125 671.982421875 m 256,24,25
 297.061917484 671.765844644 297.061917484 671.765844644 286 668.999999997 c 1,26,-1
 286 669.828125 l 257,27,28
 248.868952209 662.354652374 248.868952209 662.354652374 224.934476104 633.186297941 c 128,-1,29
 201 604.017943508 201 604.017943508 201 565 c 0,30,31
 201 526.582882627 201 526.582882627 224.960247332 497.602789293 c 128,-1,32
 248.920494664 468.622695959 248.920494664 468.622695959 286 461.169921875 c 1,33,-1
 286 462 l 257,34,35
 297.061917484 459.234155357 297.061917484 459.234155357 309.955078125 459.017578122 c 0,36,37
 322.206195603 459.232991921 322.206195603 459.232991921 334 462.131835938 c 1,38,-1
 334 461.169921875 l 257,39,40
 371.079505336 468.622695959 371.079505336 468.622695959 395.039752668 497.602789293 c 128,-1,41
 419 526.582882627 419 526.582882627 419 565 c 0,42,43
 419 604.017943508 419 604.017943508 395.065523896 633.186297941 c 128,-1,44
 371.131047791 662.354652374 371.131047791 662.354652374 334 669.828125 c 1,45,-1
 334 668.864257812 l 257,46,47
 322.215209025 671.766849594 322.215209025 671.766849594 309.955078125 671.982421875 c 256,24,25
308.905792236 3.00155997276 m 0,48,49
 308.754909516 3.00155997276 308.754909516 3.00155997276 308.452976227 3.00077998638 c 0,50,51
 306.222595216 3 306.222595216 3 304.45123291 3.02363610268 c 0,52,53
 296.26090442 3.10215726496 296.26090442 3.10215726496 290.134063721 3.60223269463 c 0,54,55
 188.939632402 10.4492492647 188.939632402 10.4492492647 119.469816201 84.3359479009 c 128,-1,56
 50 158.222646537 50 158.222646537 50 260 c 0,57,58
 50 344.986232404 50 344.986232404 99.8523353604 412.892593626 c 1,59,60
 50 480.570263252 50 480.570263252 50 565 c 0,61,62
 50 667.424924213 50 667.424924213 119.433846195 741.483652576 c 128,-1,63
 188.867692391 815.542380939 188.867692391 815.542380939 290.12890625 822.397460938 c 0,64,65
 296.267753126 822.89816448 296.267753126 822.89816448 304.451171875 822.9765625 c 0,66,67
 306.22216797 823 306.22216797 823 308 823 c 0,68,69
 308.452636718 823 308.452636718 823 308.905273438 822.998046875 c 0,70,71
 309.92578125 823 309.92578125 823 312 823 c 0,72,73
 419 823 419 823 494.5 747.5 c 128,-1,74
 570 672 570 672 570 565 c 0,75,76
 570 480.570151754 570 480.570151754 520.147722665 412.892506528 c 1,77,78
 570 344.986170005 570 344.986170005 570 260 c 0,79,80
 570 153 570 153 494.5 78 c 128,-1,81
 419 3 419 3 312 3 c 0,82,83
 311.47511673 3 311.47511673 3 310.443981171 3.00077998638 c 128,-1,84
 309.412845611 3.00155997276 309.412845611 3.00155997276 308.905792236 3.00155997276 c 0,48,49
EndSplineSet
EndChar

StartChar: nine
Encoding: 57 57 28
Width: 729
VWidth: 0
Flags: W
LayerCount: 2
Fore
SplineSet
277 146 m 0,0,1
 362.055433429 146 362.055433429 146 425.874829415 202.0802129 c 128,-1,2
 489.694225401 258.160425799 489.694225401 258.160425799 503.030273438 342.1875 c 1,3,4
 433.36206595 265.608299169 433.36206595 265.608299169 329.87109375 258.602539062 c 0,5,6
 322.263738106 258.08776705 322.263738106 258.08776705 315.548828125 258.0234375 c 0,7,8
 313.187499999 258 313.187499999 258 312 258 c 0,9,10
 311.547363282 258 311.547363282 258 311.094726562 258.001953125 c 0,11,12
 310.07421875 258 310.07421875 258 308 258 c 0,13,14
 216.552818176 258 216.552818176 258 146.422315983 314.515984546 c 128,-1,15
 76.2918137893 371.031969091 76.2918137893 371.031969091 56.4833984375 458 c 0,16,17
 50 486.465774911 50 486.465774911 50 516 c 0,18,19
 50 556.071472145 50 556.071472145 62 593.861328125 c 0,20,21
 91.883421419 687.978988647 91.883421419 687.978988647 177.612304688 737.958984375 c 1,22,23
 226.642672045 772 226.642672045 772 277 772 c 0,24,25
 280.62109375 772 280.62109375 772 284.227539062 771.930664062 c 0,26,27
 296.047757272 773 296.047757272 773 308 773 c 0,28,29
 308.525024414 773 308.525024414 773 309.556030273 772.999023438 c 128,-1,30
 310.587036133 772.998046875 310.587036133 772.998046875 311.09375 772.998046875 c 0,31,32
 311.244628906 772.998046875 311.244628906 772.998046875 311.546875 772.999023438 c 0,33,34
 313.777832031 773 313.777832031 773 315.548828125 772.9765625 c 0,35,36
 324.169337135 772.862302084 324.169337135 772.862302084 329.866210938 772.397460938 c 0,37,38
 409.650993506 765.879605307 409.650993506 765.879605307 471.920898438 717.015625 c 1,39,40
 557.475662478 664.629936328 557.475662478 664.629936328 608.237831239 574.582018029 c 128,-1,41
 659 484.534099729 659 484.534099729 659 378 c 0,42,43
 659 215 659 215 547 100 c 128,-1,44
 435 -15 435 -15 277 -15 c 0,45,46
 194.005018035 -15 194.005018035 -15 158 -7.83203125 c 1,47,-1
 158 158.09375 l 1,48,49
 173.389750092 152.823844956 173.389750092 152.823844956 212.956186472 149.411922478 c 128,-1,50
 252.522622851 146 252.522622851 146 277 146 c 0,0,1
326.044921875 391.017578125 m 0,51,52
 337.280043241 390.819590789 337.280043241 390.819590789 350 394 c 1,53,-1
 350 393.171875 l 1,54,55
 387.131047791 400.645347626 387.131047791 400.645347626 411.065523896 429.813702059 c 128,-1,56
 435 458.982056492 435 458.982056492 435 498 c 0,57,58
 435 552.317732539 435 552.317732539 391.458007812 583.771484375 c 0,59,60
 375.729977777 593.066528605 375.729977777 593.066528605 358.77734375 599.682617188 c 0,61,62
 354.439897724 600.938310023 354.439897724 600.938310023 350 601.830078125 c 1,63,-1
 350 601 l 1,64,65
 338.938191608 603.765817366 338.938191608 603.765817366 326.044921875 603.982421878 c 0,66,67
 313.793804397 603.767008079 313.793804397 603.767008079 302 600.868164062 c 1,68,-1
 302 601.830078125 l 1,69,70
 264.920494664 594.377304041 264.920494664 594.377304041 240.960247332 565.397210707 c 128,-1,71
 217 536.417117373 217 536.417117373 217 498 c 0,72,73
 217 458.982056492 217 458.982056492 240.934476104 429.813702059 c 128,-1,74
 264.868952209 400.645347626 264.868952209 400.645347626 302 393.171875 c 1,75,-1
 302 394.135742188 l 1,76,77
 313.784790975 391.233150406 313.784790975 391.233150406 326.044921875 391.017578125 c 0,51,52
EndSplineSet
EndChar

StartChar: colon
Encoding: 58 58 29
Width: 252
VWidth: 0
Flags: W
LayerCount: 2
Fore
SplineSet
50 398 m 261,0,-1
 50 540 l 257,1,-1
 202 540 l 257,2,-1
 202 398 l 257,3,-1
 50 398 l 261,0,-1
50 -2 m 257,4,-1
 50 140 l 257,5,-1
 202 140 l 257,6,-1
 202 -2 l 257,7,-1
 50 -2 l 257,4,-1
EndSplineSet
EndChar

StartChar: semicolon
Encoding: 59 59 30
Width: 252
VWidth: 0
Flags: W
LayerCount: 2
Fore
SplineSet
50 -2 m 5,0,-1
 50 140 l 1,1,-1
 202 140 l 1,2,-1
 202 -2 l 1,3,-1
 142 -134 l 1,4,-1
 84 -130 l 1,5,-1
 92.7671232877 -2 l 1,6,-1
 50 -2 l 5,0,-1
50 398 m 257,7,-1
 50 540 l 257,8,-1
 202 540 l 257,9,-1
 202 398 l 257,10,-1
 50 398 l 257,7,-1
EndSplineSet
EndChar

StartChar: less
Encoding: 60 60 31
Width: 644
VWidth: 0
Flags: W
LayerCount: 2
Fore
SplineSet
594 546 m 5,0,-1
 594 394 l 1,1,-1
 379.895582329 337.718875502 l 1,2,-1
 594 296 l 1,3,-1
 594 144 l 1,4,-1
 50 250 l 1,5,-1
 50 251 l 1,6,-1
 50 402 l 1,7,-1
 50 403 l 1,8,-1
 594 546 l 5,0,-1
EndSplineSet
EndChar

StartChar: equal
Encoding: 61 61 32
Width: 644
VWidth: 0
Flags: W
LayerCount: 2
Fore
SplineSet
594 296 m 261,0,-1
 594 144 l 257,1,-1
 50 144 l 257,2,-1
 50 296 l 257,3,-1
 594 296 l 261,0,-1
594 546 m 257,4,-1
 594 394 l 257,5,-1
 50 394 l 257,6,-1
 50 546 l 257,7,-1
 594 546 l 257,4,-1
EndSplineSet
EndChar

StartChar: greater
Encoding: 62 62 33
Width: 644
VWidth: 0
Flags: W
LayerCount: 2
Fore
SplineSet
50 546 m 5,0,-1
 594 403 l 1,1,-1
 594 402 l 1,2,-1
 594 251 l 1,3,-1
 594 250 l 1,4,-1
 50 144 l 1,5,-1
 50 296 l 1,6,-1
 264 338 l 1,7,-1
 50 394 l 1,8,-1
 50 546 l 5,0,-1
EndSplineSet
EndChar

StartChar: question
Encoding: 63 63 34
Width: 384
VWidth: 0
Flags: W
LayerCount: 2
Fore
SplineSet
50 -2 m 257,0,-1
 50 140 l 257,1,-1
 202 140 l 257,2,-1
 202 -2 l 257,3,-1
 50 -2 l 257,0,-1
50 828 m 1,4,5
 59 829 59 829 76 829 c 0,6,7
 183 829 183 829 258.5 754 c 128,-1,8
 334 679 334 679 334 572 c 0,9,10
 334 500.271182902 334 500.271182902 298.102805328 440.215646581 c 128,-1,11
 262.205610656 380.160110261 262.205610656 380.160110261 202 346.573282595 c 1,12,-1
 202 230 l 1,13,-1
 50 230 l 1,14,-1
 50 315 l 1,15,-1
 50 440 l 1,16,-1
 50 468 l 1,17,18
 62 465 62 465 76 465 c 0,19,20
 121 465 121 465 152 496 c 128,-1,21
 183 527 183 527 183 572 c 0,22,23
 183 616 183 616 152 647 c 128,-1,24
 121 678 121 678 76 678 c 0,25,26
 62 678 62 678 50 675 c 1,27,-1
 50 828 l 1,4,5
EndSplineSet
EndChar

StartChar: .notdef
Encoding: 64 -1 35
Width: 864
VWidth: 0
Flags: W
LayerCount: 2
Fore
SplineSet
524 166 m 1025,0,-1
485 420 m 257,1,2
 481 421 481 421 473 421 c 0,3,4
 450 421 450 421 434.5 405.5 c 128,-1,5
 419 390 419 390 419 368 c 128,-1,6
 419 346 419 346 434.5 330 c 128,-1,7
 450 314 450 314 473 314 c 0,8,9
 477 314 477 314 485 316 c 1,10,-1
 485 420 l 257,1,2
561 236 m 1025,11,-1
487 228 m 1,12,-1
 473 239 l 1,13,14
 419 239 419 239 381 276.5 c 128,-1,15
 343 314 343 314 343 368 c 0,16,17
 343 421 343 421 381 456.5 c 128,-1,18
 419 492 419 492 473 492 c 2,19,-1
 485 492 l 1,20,-1
 561 492 l 1,21,-1
 568.010742188 318.353515625 l 2,22,23
 569.888552339 306.147749643 569.888552339 306.147749643 583.612526776 291.829620888 c 128,-1,24
 597.336501213 277.511492134 597.336501213 277.511492134 613.650504231 270.25886483 c 128,-1,25
 629.964507248 263.006237525 629.964507248 263.006237525 644.539833905 276.07934623 c 128,-1,26
 659.115160561 289.152454936 659.115160561 289.152454936 662 326 c 0,27,28
 662 327 662 327 660 334 c 128,-1,29
 658 341 658 341 658 342 c 0,30,31
 667 396 667 396 651 448.5 c 128,-1,32
 635 501 635 501 595 541 c 0,33,34
 527 608 527 608 431.5 606.5 c 128,-1,35
 336 605 336 605 268 537 c 0,36,37
 199 468 199 468 198 372.5 c 128,-1,38
 197 277 197 277 264 209 c 0,39,40
 316 157 316 157 388 146 c 128,-1,41
 460 135 460 135 524 166 c 0,42,43
 535 171 535 171 563 143 c 128,-1,44
 591 115 591 115 614 84.5 c 2,45,-1
 637 54 l 1,46,47
 524 -22 524 -22 387 -10.5 c 128,-1,48
 250 1 250 1 153 98 c 0,49,50
 41 210 41 210 43.5 371 c 128,-1,51
 46 532 46 532 161 647 c 128,-1,52
 276 762 276 762 436.5 764.5 c 128,-1,53
 597 767 597 767 709 655 c 0,54,55
 793 571 793 571 814 448 c 128,-1,56
 835 325 835 325 787 220 c 1,57,58
 765 207 765 207 743 199 c 128,-1,59
 721 191 721 191 696.5 189.5 c 128,-1,60
 672 188 672 188 655 187.5 c 128,-1,61
 638 187 638 187 611 193.5 c 128,-1,62
 584 200 584 200 571.5 203 c 128,-1,63
 559 206 559 206 527.5 215.5 c 128,-1,64
 496 225 496 225 487 228 c 1,12,-1
EndSplineSet
EndChar

StartChar: B
Encoding: 66 66 36
Width: 512
VWidth: 0
Flags: W
LayerCount: 2
Fore
SplineSet
202 780 m 258,0,1
 207.96484375 780 207.96484375 780 220 780 c 0,2,3
 327 780 327 780 402.5 704.5 c 128,-1,4
 478 629 478 629 478 522 c 0,5,6
 478 499 478 499 464 477 c 128,-1,7
 450 455 450 455 425.5 429 c 128,-1,8
 401 403 401 403 395 396 c 0,9,10
 397 394 397 394 427.5 362 c 128,-1,11
 458 330 458 330 471 307.5 c 128,-1,12
 484 285 484 285 484 260 c 0,13,14
 484 153 484 153 408.5 78 c 128,-1,15
 333 3 333 3 226 3 c 0,16,17
 210 3 210 3 202 4 c 2,18,-1
 50 4 l 257,19,-1
 50 780 l 257,20,-1
 202 780 l 258,0,1
202 136 m 257,21,22
 214 133 214 133 226 133 c 256,23,24
 271 133 271 133 302 164 c 128,-1,25
 333 195 333 195 333 239 c 0,26,27
 333 284 333 284 302 315 c 128,-1,28
 271 346 271 346 226 346 c 0,29,30
 214 346 214 346 202 343 c 257,31,-1
 202 136 l 257,21,22
202 454 m 257,32,33
 214 451 214 451 226 451 c 256,34,35
 271 451 271 451 302 482 c 128,-1,36
 333 513 333 513 333 557 c 0,37,38
 333 602 333 602 302 633 c 128,-1,39
 271 664 271 664 226 664 c 0,40,41
 214 664 214 664 202 661 c 257,42,-1
 202 454 l 257,32,33
EndSplineSet
EndChar

StartChar: C
Encoding: 67 67 37
Width: 555
VWidth: 0
Flags: W
LayerCount: 2
Fore
SplineSet
432 612 m 260,0,1
 337 612 337 612 270 543.5 c 128,-1,2
 203 475 203 475 203 378 c 0,3,4
 203 280 203 280 270 211.5 c 128,-1,5
 337 143 337 143 432 143 c 0,6,7
 469.695002914 143 469.695002914 143 505 155.102142334 c 1,8,-1
 505 -6.83008432388 l 257,9,10
 468.999712567 -14 468.999712567 -14 432 -14 c 0,11,12
 274 -14 274 -14 162 101.5 c 128,-1,13
 50 217 50 217 50 380 c 128,-1,14
 50 543 50 543 162 658 c 128,-1,15
 274 773 274 773 432 773 c 0,16,17
 468.995176054 773 468.995176054 773 505 765.831726074 c 1,18,-1
 505 599.906005859 l 257,19,20
 469.682186427 612 469.682186427 612 432 612 c 260,0,1
EndSplineSet
EndChar

StartChar: D
Encoding: 68 68 38
Width: 630
VWidth: 0
Flags: W
LayerCount: 2
Fore
SplineSet
50 768 m 257,0,1
 65 763 65 763 124 768 c 128,-1,2
 183 773 183 773 198 773 c 0,3,4
 356 773 356 773 468 658 c 128,-1,5
 580 543 580 543 580 380 c 0,6,7
 580 273.477731201 580 273.477731201 529.480098138 183.131982551 c 128,-1,8
 478.960196276 92.7862339002 478.960196276 92.7862339002 391.957829108 39.9470020281 c 128,-1,9
 304.95546194 -12.892229844 304.95546194 -12.892229844 202 -13.9788990021 c 0,10,-1
 50 -14 l 257,11,-1
 50 768 l 257,0,1
202 143.03477478 m 257,12,13
 295.873550558 144.668166911 295.873550558 144.668166911 361.436775279 213.108438766 c 128,-1,14
 427 281.548710621 427 281.548710621 427 378 c 0,15,16
 427 473.784219564 427 473.784219564 361.4001436 542.058690399 c 128,-1,17
 295.800287199 610.333161234 295.800287199 610.333161234 202 611.965209961 c 1,18,-1
 202 143.03477478 l 257,12,13
EndSplineSet
EndChar

StartChar: E
Encoding: 69 69 39
Width: 668
VWidth: 0
Flags: W
LayerCount: 2
Fore
SplineSet
509 485 m 257,0,-1
 510 333 l 257,1,-1
 202 333 l 257,2,-1
 202 149 l 257,3,-1
 617 149 l 257,4,-1
 618 -3 l 257,5,-1
 51 -3 l 257,6,-1
 50.9934196472 -2 l 257,7,-1
 50 -2 l 257,8,-1
 50 774 l 257,9,-1
 50 778 l 257,10,-1
 617 778 l 257,11,-1
 618 626 l 257,12,-1
 202 626 l 257,13,-1
 202 485 l 257,14,-1
 509 485 l 257,0,-1
EndSplineSet
EndChar

StartChar: F
Encoding: 70 70 40
Width: 668
VWidth: 0
Flags: W
LayerCount: 2
Fore
SplineSet
509 485 m 257,0,-1
 510 333 l 257,1,-1
 202 333 l 257,2,-1
 202 -2 l 257,3,-1
 50 -2 l 257,4,-1
 50 774 l 257,5,-1
 50 778 l 257,6,-1
 617 778 l 257,7,-1
 618 626 l 257,8,-1
 202 626 l 257,9,-1
 202 485 l 257,10,-1
 509 485 l 257,0,-1
EndSplineSet
EndChar

StartChar: G
Encoding: 71 71 41
Width: 651
VWidth: 0
Flags: W
LayerCount: 2
Fore
SplineSet
432 612 m 256,0,1
 337 612 337 612 270 543.5 c 128,-1,2
 203 475 203 475 203 378 c 0,3,4
 203 280 203 280 270 211.5 c 128,-1,5
 337 143 337 143 432 143 c 0,6,7
 440.534014063 143 440.534014063 143 449 143.631622314 c 1,8,-1
 449 313 l 257,9,-1
 601 313 l 257,10,-1
 601 -14 l 257,11,-1
 449 -14 l 258,12,13
 440.517044983 -14 440.517044983 -14 432 -14 c 0,14,15
 274 -14 274 -14 162 101.5 c 128,-1,16
 50 217 50 217 50 380 c 128,-1,17
 50 543 50 543 162 658 c 128,-1,18
 274 773 274 773 432 773 c 0,19,20
 468.995176054 773 468.995176054 773 505 765.831726074 c 1,21,-1
 505 599.906005859 l 257,22,23
 469.682186427 612 469.682186427 612 432 612 c 256,0,1
EndSplineSet
EndChar

StartChar: H
Encoding: 72 72 42
Width: 652
VWidth: 0
Flags: W
LayerCount: 2
Fore
SplineSet
450 774 m 257,0,-1
 602 774 l 257,1,-1
 602 -2 l 257,2,-1
 450 -2 l 257,3,-1
 450 333 l 257,4,-1
 202 333 l 257,5,-1
 202 -2 l 257,6,-1
 50 -2 l 257,7,-1
 50 774 l 257,8,-1
 202 774 l 257,9,-1
 202 485 l 257,10,-1
 450 485 l 257,11,-1
 450 774 l 257,0,-1
EndSplineSet
EndChar

StartChar: I
Encoding: 73 73 43
Width: 252
VWidth: 0
Flags: W
LayerCount: 2
Fore
SplineSet
50 774 m 257,0,-1
 202 774 l 257,1,-1
 202 -2 l 257,2,-1
 50 -2 l 257,3,-1
 50 774 l 257,0,-1
EndSplineSet
EndChar

StartChar: J
Encoding: 74 74 44
Width: 419
VWidth: 0
Flags: W
LayerCount: 2
Fore
SplineSet
50 6 m 257,0,-1
 50 174 l 257,1,2
 81 148 81 148 121 148 c 0,3,4
 170 148 170 148 202 185 c 1,5,-1
 202 761 l 257,6,-1
 369 761 l 257,7,-1
 366 184 l 257,8,9
 342 101 342 101 275 49 c 128,-1,10
 208 -3 208 -3 121 -3 c 0,11,12
 84 -3 84 -3 50 6 c 257,0,-1
EndSplineSet
EndChar

StartChar: K
Encoding: 75 75 45
Width: 703
VWidth: 0
Flags: W
LayerCount: 2
Fore
SplineSet
50 774 m 257,0,-1
 202 774 l 257,1,-1
 202 432.894744873 l 257,2,-1
 447 770 l 257,3,-1
 633 768 l 257,4,-1
 372 387 l 257,5,-1
 703 -3 l 257,6,-1
 511 -2 l 257,7,-1
 259.207733154 301.887695312 l 257,8,-1
 202 218.504714966 l 257,9,-1
 202 -2 l 257,10,-1
 50 -2 l 257,11,-1
 50 774 l 257,0,-1
EndSplineSet
EndChar

StartChar: L
Encoding: 76 76 46
Width: 718
VWidth: 0
Flags: W
LayerCount: 2
Fore
SplineSet
50 774 m 261,0,-1
 202 774 l 257,1,-1
 202 149 l 257,2,-1
 667 149 l 257,3,-1
 668 -3 l 257,4,-1
 51 -3 l 257,5,-1
 50.9934196472 -2 l 257,6,-1
 50 -2 l 257,7,-1
 50 774 l 261,0,-1
EndSplineSet
EndChar

StartChar: M
Encoding: 77 77 47
Width: 1052
VWidth: 0
Flags: W
LayerCount: 2
Fore
SplineSet
50 768 m 257,0,-1
 202 768 l 257,1,-1
 526 145.919998169 l 257,2,-1
 850 768 l 257,3,-1
 1002 768 l 257,4,-1
 1002 -2 l 257,5,-1
 850 -2 l 257,6,-1
 850 476.160003662 l 257,7,-1
 602 0 l 257,8,-1
 450 0 l 257,9,-1
 202 476.160003662 l 257,10,-1
 202 -2 l 257,11,-1
 50 -2 l 257,12,-1
 50 768 l 257,0,-1
EndSplineSet
EndChar

StartChar: N
Encoding: 78 78 48
Width: 852
VWidth: 0
Flags: W
LayerCount: 2
Fore
SplineSet
50 774 m 257,0,-1
 202 774 l 257,1,-1
 650 250.521743774 l 257,2,-1
 650 774 l 257,3,-1
 802 774 l 257,4,-1
 802 -2 l 257,5,-1
 650 -2 l 257,6,-1
 202 523.10144043 l 257,7,-1
 202 -2 l 257,8,-1
 50 -2 l 257,9,-1
 50 774 l 257,0,-1
EndSplineSet
EndChar

StartChar: O
Encoding: 79 79 49
Width: 864
VWidth: 0
Flags: W
LayerCount: 2
Fore
SplineSet
814 380 m 260,0,1
 814 217 814 217 702 101.5 c 128,-1,2
 590 -14 590 -14 432 -14 c 128,-1,3
 274 -14 274 -14 162 101.5 c 128,-1,4
 50 217 50 217 50 380 c 128,-1,5
 50 543 50 543 162 658 c 128,-1,6
 274 773 274 773 432 773 c 128,-1,7
 590 773 590 773 702 658 c 128,-1,8
 814 543 814 543 814 380 c 260,0,1
661 378 m 260,9,10
 661 475 661 475 594 543.5 c 128,-1,11
 527 612 527 612 432 612 c 128,-1,12
 337 612 337 612 270 543.5 c 128,-1,13
 203 475 203 475 203 378 c 0,14,15
 203 280 203 280 270 211.5 c 128,-1,16
 337 143 337 143 432 143 c 128,-1,17
 527 143 527 143 594 211.5 c 128,-1,18
 661 280 661 280 661 378 c 260,9,10
EndSplineSet
EndChar

StartChar: P
Encoding: 80 80 50
Width: 534
VWidth: 0
Flags: W
LayerCount: 2
Fore
SplineSet
202 3 m 257,0,-1
 50 3 l 257,1,-1
 50 779 l 257,2,-1
 202 779 l 258,3,4
 210 780 210 780 226 780 c 0,5,6
 333 780 333 780 408.5 705 c 128,-1,7
 484 630 484 630 484 523 c 128,-1,8
 484 416 484 416 408.5 340.5 c 128,-1,9
 333 265 333 265 226 265 c 0,10,11
 210 265 210 265 202 266 c 1,12,-1
 202 3 l 257,0,-1
202 626 m 257,13,-1
 202 419 l 257,14,15
 214 416 214 416 226 416 c 256,16,17
 271 416 271 416 302 447 c 128,-1,18
 333 478 333 478 333 523 c 0,19,20
 333 567 333 567 302 598 c 128,-1,21
 271 629 271 629 226 629 c 0,22,23
 214 629 214 629 202 626 c 257,13,-1
EndSplineSet
EndChar

StartChar: Q
Encoding: 81 81 51
Width: 864
VWidth: 0
Flags: W
LayerCount: 2
Fore
SplineSet
661 378 m 256,0,1
 661 475 661 475 594 543.5 c 128,-1,2
 527 612 527 612 432 612 c 128,-1,3
 337 612 337 612 270 543.5 c 128,-1,4
 203 475 203 475 203 378 c 0,5,6
 203 280 203 280 270 211.5 c 128,-1,7
 337 143 337 143 432 143 c 128,-1,8
 527 143 527 143 594 211.5 c 128,-1,9
 661 280 661 280 661 378 c 256,0,1
814 380 m 256,10,11
 814 293.334495907 814 293.334495907 779.812490438 216.659644918 c 128,-1,12
 745.624980877 139.984793929 745.624980877 139.984793929 685.184082031 84.8159484863 c 1,13,-1
 822 -52 l 257,14,-1
 684 -191 l 257,15,-1
 500.666381836 -7.66637468338 l 257,16,17
 466.761619594 -14 466.761619594 -14 432 -14 c 0,18,19
 274 -14 274 -14 162 101.5 c 128,-1,20
 50 217 50 217 50 380 c 128,-1,21
 50 543 50 543 162 658 c 128,-1,22
 274 773 274 773 432 773 c 128,-1,23
 590 773 590 773 702 658 c 128,-1,24
 814 543 814 543 814 380 c 256,10,11
EndSplineSet
EndChar

StartChar: R
Encoding: 82 82 52
Width: 512
VWidth: 0
Flags: W
LayerCount: 2
Fore
SplineSet
202 626 m 257,0,-1
 202 419 l 257,1,2
 214 416 214 416 226 416 c 256,3,4
 271 416 271 416 302 447 c 128,-1,5
 333 478 333 478 333 523 c 0,6,7
 333 567 333 567 302 598 c 128,-1,8
 271 629 271 629 226 629 c 0,9,10
 214 629 214 629 202 626 c 257,0,-1
202 3 m 257,11,-1
 50 3 l 257,12,-1
 50 779 l 257,13,-1
 202 779 l 258,14,15
 210 780 210 780 226 780 c 0,16,17
 333 780 333 780 408.5 705 c 128,-1,18
 484 630 484 630 484 523 c 0,19,20
 484 439.794143909 484 439.794143909 436.545227225 373.425790798 c 128,-1,21
 389.09045445 307.057437686 389.09045445 307.057437686 313.255218506 280 c 1,22,-1
 512 -3 l 257,23,-1
 372 -3 l 257,24,-1
 206.913360596 265.502990723 l 258,25,26
 204.363329762 265.704600294 204.363329762 265.704600294 201.999999998 266 c 1,27,-1
 202 3 l 257,11,-1
EndSplineSet
EndChar

StartChar: S
Encoding: 83 83 53
Width: 512
VWidth: 0
Flags: W
LayerCount: 2
Fore
SplineSet
55 57 m 257,0,-1
 130 182 l 257,1,2
 142 172 142 172 152 167 c 0,3,4
 190 145 190 145 232 155.5 c 128,-1,5
 274 166 274 166 297 202 c 0,6,7
 319 241 319 241 294.5 274.5 c 128,-1,8
 270 308 270 308 227 315 c 1,9,10
 160 351 160 351 119.5 398 c 128,-1,11
 79 445 79 445 68.5 507.5 c 128,-1,12
 58 570 58 570 101 639 c 0,13,14
 153 726 153 726 256 751.5 c 128,-1,15
 359 777 359 777 453 727 c 0,16,17
 456 724 456 724 463.5 719.5 c 128,-1,18
 471 715 471 715 474 712 c 1,19,-1
 399 587 l 257,20,21
 387 597 387 597 377 602 c 0,22,23
 339 623 339 623 296.5 612.5 c 128,-1,24
 254 602 254 602 232 565 c 0,25,26
 207 524 207 524 227.5 475 c 128,-1,27
 248 426 248 426 296 418 c 1,28,29
 345 392 345 392 378.5 365.5 c 128,-1,30
 412 339 412 339 436.5 303.5 c 128,-1,31
 461 268 461 268 459.5 224 c 128,-1,32
 458 180 458 180 427 130 c 0,33,34
 375 42 375 42 272.5 16.5 c 128,-1,35
 170 -9 170 -9 76 42 c 0,36,37
 73 45 73 45 65.5 49.5 c 128,-1,38
 58 54 58 54 55 57 c 257,0,-1
EndSplineSet
EndChar

StartChar: T
Encoding: 84 84 54
Width: 676
VWidth: 0
Flags: W
LayerCount: 2
Fore
SplineSet
265 766 m 257,0,-1
 417 766 l 257,1,-1
 417 -2 l 257,2,-1
 265 -2 l 257,3,-1
 265 766 l 257,0,-1
53 614 m 257,4,-1
 53 766 l 257,5,-1
 629 766 l 257,6,-1
 629 614 l 257,7,-1
 53 614 l 257,4,-1
EndSplineSet
EndChar

StartChar: U
Encoding: 85 85 55
Width: 669
VWidth: 0
Flags: W
LayerCount: 2
Fore
SplineSet
616 184 m 257,0,1
 600 126 600 126 555.5 84.5 c 128,-1,2
 511 43 511 43 455 23.5 c 128,-1,3
 399 4 399 4 335 3.5 c 128,-1,4
 271 3 271 3 214.5 22 c 128,-1,5
 158 41 158 41 114 83 c 128,-1,6
 70 125 70 125 53 184 c 1,7,-1
 50 761 l 257,8,-1
 217 761 l 257,9,-1
 217 185 l 257,10,11
 246 152 246 152 335 151.5 c 128,-1,12
 424 151 424 151 452 185 c 1,13,-1
 452 761 l 257,14,-1
 619 761 l 257,15,-1
 616 184 l 257,0,1
EndSplineSet
EndChar

StartChar: V
Encoding: 86 86 56
Width: 652
VWidth: 0
Flags: W
LayerCount: 2
Fore
SplineSet
50 769 m 257,0,-1
 202 769 l 257,1,-1
 326 292.220001221 l 257,2,-1
 450 769 l 257,3,-1
 602 769 l 257,4,-1
 402 0 l 257,5,-1
 250 0 l 257,6,-1
 50 769 l 257,0,-1
EndSplineSet
EndChar

StartChar: W
Encoding: 87 87 57
Width: 1000
VWidth: 0
Flags: W
LayerCount: 2
Fore
SplineSet
50 769 m 257,0,-1
 202 769 l 257,1,-1
 326 292.220001221 l 257,2,-1
 450 769 l 257,3,-1
 602 769 l 257,4,-1
 402 0 l 257,5,-1
 250 0 l 257,6,-1
 50 769 l 257,0,-1
451 769 m 257,7,-1
 603 769 l 257,8,-1
 727 292 l 257,9,-1
 851 769 l 257,10,-1
 1003 769 l 257,11,-1
 803 0 l 257,12,-1
 651 0 l 257,13,-1
 451 769 l 257,7,-1
EndSplineSet
EndChar

StartChar: X
Encoding: 88 88 58
Width: 724
VWidth: 0
Flags: W
LayerCount: 2
Fore
SplineSet
50 770 m 257,0,-1
 236 768 l 257,1,-1
 365.550445557 540.843078613 l 257,2,-1
 498 769 l 257,3,-1
 673 768 l 257,4,-1
 452.728759766 387.98248291 l 257,5,-1
 674 0 l 257,6,-1
 499 -2 l 257,7,-1
 362.609527588 232.506546021 l 257,8,-1
 229 2 l 257,9,-1
 51 -1 l 257,10,-1
 274.5 384 l 257,11,-1
 50 770 l 257,0,-1
EndSplineSet
EndChar

StartChar: Y
Encoding: 89 89 59
Width: 512
VWidth: 0
Flags: W
LayerCount: 2
Fore
SplineSet
193 451 m 257,0,-1
 -6 765 l 257,1,-1
 146 765 l 257,2,-1
 270 594 l 257,3,-1
 394 765 l 257,4,-1
 546 765 l 257,5,-1
 346 450 l 257,6,-1
 345 450 l 257,7,-1
 345 1 l 257,8,-1
 193 1 l 257,9,-1
 193 451 l 257,0,-1
EndSplineSet
EndChar

StartChar: Z
Encoding: 90 90 60
Width: 783
VWidth: 0
Flags: W
LayerCount: 2
Fore
SplineSet
50 10 m 257,0,-1
 50 162 l 257,1,-1
 480 610 l 257,2,-1
 50 610 l 257,3,-1
 50 762 l 257,4,-1
 733 762 l 257,5,-1
 733 610 l 257,6,-1
 301 162 l 257,7,-1
 733 162 l 257,8,-1
 733 10 l 257,9,-1
 50 10 l 257,0,-1
EndSplineSet
EndChar

StartChar: bracketleft
Encoding: 91 91 61
Width: 362
VWidth: 0
Flags: W
LayerCount: 2
Fore
SplineSet
51 -80 m 5,0,-1
 50 -80 l 1,1,-1
 50 -79 l 1,2,-1
 50 773 l 1,3,-1
 50 774 l 1,4,-1
 51 774 l 1,5,-1
 312 774 l 1,6,-1
 311 689 l 1,7,-1
 144 689 l 1,8,-1
 144 5 l 1,9,-1
 311 5 l 1,10,-1
 312 -80 l 1,11,-1
 51 -80 l 5,0,-1
EndSplineSet
EndChar

StartChar: backslash
Encoding: 92 92 62
Width: 691
VWidth: 0
Flags: W
LayerCount: 2
Fore
SplineSet
156 818 m 257,0,-1
 641 -22 l 257,1,-1
 535 -83 l 257,2,-1
 50 757 l 257,3,-1
 156 818 l 257,0,-1
EndSplineSet
EndChar

StartChar: bracketright
Encoding: 93 93 63
Width: 362
VWidth: 0
Flags: W
LayerCount: 2
Fore
SplineSet
311 -81 m 1,0,-1
 50 -81 l 1,1,-1
 51 4 l 1,2,-1
 218 4 l 1,3,-1
 218 689 l 1,4,-1
 51 689 l 1,5,-1
 50 774 l 1,6,-1
 311 774 l 1,7,-1
 312 774 l 1,8,-1
 312 773 l 1,9,-1
 312 -80 l 1,10,-1
 312 -81 l 1,11,-1
 311 -81 l 1,0,-1
EndSplineSet
EndChar

StartChar: asciicircum
Encoding: 94 94 64
Width: 644
VWidth: 0
Flags: W
LayerCount: 2
Fore
SplineSet
121 283 m 1,0,-1
 264 617 l 1,1,-1
 265 617 l 1,2,-1
 416 617 l 1,3,-1
 417 617 l 1,4,-1
 523 283 l 1,5,-1
 371 283 l 1,6,-1
 329 497 l 1,7,-1
 273 283 l 1,8,-1
 121 283 l 1,0,-1
EndSplineSet
EndChar

StartChar: underscore
Encoding: 95 95 65
Width: 544
VWidth: 0
Flags: W
LayerCount: 2
Fore
SplineSet
544 196 m 261,0,-1
 544 44 l 257,1,-1
 0 44 l 257,2,-1
 0 196 l 257,3,-1
 544 196 l 261,0,-1
EndSplineSet
EndChar

StartChar: grave
Encoding: 96 96 66
Width: 252
VWidth: 0
Flags: W
LayerCount: 2
Fore
SplineSet
163 516 m 261,0,-1
 -19 698 l 257,1,-1
 89 805 l 257,2,-1
 271 623 l 257,3,-1
 163 516 l 261,0,-1
EndSplineSet
EndChar

StartChar: a
Encoding: 97 97 67
Width: 512
VWidth: 0
Flags: W
LayerCount: 2
Fore
SplineSet
332 1 m 257,0,-1
 332 9 l 257,1,2
 324 8 324 8 308 8 c 0,3,4
 201 8 201 8 125.5 83.5 c 128,-1,5
 50 159 50 159 50 266 c 0,6,7
 50 372 50 372 125 443.5 c 128,-1,8
 200 515 200 515 308 515 c 0,9,10
 324 515 324 515 332 514 c 2,11,-1
 484 514 l 257,12,-1
 484 1 l 257,13,-1
 332 1 l 257,0,-1
332 369 m 257,14,15
 320 372 320 372 308 372 c 256,16,17
 263 372 263 372 232 341 c 128,-1,18
 201 310 201 310 201 266 c 0,19,20
 201 221 201 221 232 190 c 128,-1,21
 263 159 263 159 308 159 c 0,22,23
 320 159 320 159 332 162 c 257,24,-1
 332 369 l 257,14,15
EndSplineSet
EndChar

StartChar: b
Encoding: 98 98 68
Width: 512
VWidth: 0
Flags: W
LayerCount: 2
Fore
SplineSet
202 780 m 257,0,-1
 202 517 l 257,1,2
 210 518 210 518 226 518 c 0,3,4
 333 518 333 518 408.5 442.5 c 128,-1,5
 484 367 484 367 484 260 c 128,-1,6
 484 153 484 153 408.5 78 c 128,-1,7
 333 3 333 3 226 3 c 0,8,9
 210 3 210 3 202 4 c 2,10,-1
 50 4 l 257,11,-1
 50 780 l 257,12,-1
 202 780 l 257,0,-1
202 157 m 257,13,14
 214 154 214 154 226 154 c 256,15,16
 271 154 271 154 302 185 c 128,-1,17
 333 216 333 216 333 260 c 0,18,19
 333 305 333 305 302 336 c 128,-1,20
 271 367 271 367 226 367 c 0,21,22
 214 367 214 367 202 364 c 257,23,-1
 202 157 l 257,13,14
EndSplineSet
EndChar

StartChar: c
Encoding: 99 99 69
Width: 384
VWidth: 0
Flags: W
LayerCount: 2
Fore
SplineSet
334 4.29609966278 m 261,0,1
 321.066535104 3 321.066535104 3 308 3 c 0,2,3
 201 3 201 3 125.5 78 c 128,-1,4
 50 153 50 153 50 260 c 128,-1,5
 50 367 50 367 125.5 442.5 c 128,-1,6
 201 518 201 518 308 518 c 0,7,8
 321.067474027 518 321.067474027 518 334 516.703674316 c 1,9,-1
 334 363.864593506 l 257,10,11
 321.268404537 367 321.268404537 367 308 367 c 0,12,13
 263 367 263 367 232 336 c 128,-1,14
 201 305 201 305 201 260 c 0,15,16
 201 216 201 216 232 185 c 128,-1,17
 263 154 263 154 308 154 c 0,18,19
 321.26094667 154 321.26094667 154 334 157.131896973 c 1,20,-1
 334 4.29609966278 l 261,0,1
EndSplineSet
EndChar

StartChar: d
Encoding: 100 100 70
Width: 512
VWidth: 0
Flags: W
LayerCount: 2
Fore
SplineSet
332 780 m 257,0,-1
 484 780 l 257,1,-1
 484 4 l 257,2,-1
 332 4 l 258,3,4
 320.055163769 3 320.055163769 3 308 3 c 0,5,6
 201 3 201 3 125.5 78 c 128,-1,7
 50 153 50 153 50 260 c 128,-1,8
 50 367 50 367 125.5 442.5 c 128,-1,9
 201 518 201 518 308 518 c 0,10,11
 320.055714595 518 320.055714595 518 332 516.89630127 c 1,12,-1
 332 780 l 257,0,-1
332 156.660415649 m 257,13,-1
 332 364.336853027 l 257,14,15
 320.21799031 367 320.21799031 367 308 367 c 0,16,17
 263 367 263 367 232 336 c 128,-1,18
 201 305 201 305 201 260 c 0,19,20
 201 216 201 216 232 185 c 128,-1,21
 263 154 263 154 308 154 c 0,22,23
 320.21171984 154 320.21171984 154 332 156.660415649 c 257,13,-1
EndSplineSet
EndChar

StartChar: e
Encoding: 101 101 71
Width: 617
VWidth: 0
Flags: W
LayerCount: 2
Fore
SplineSet
566 260 m 256,0,1
 566 250 566 250 566.5 232.5 c 128,-1,2
 567 215 567 215 567 208 c 1,3,-1
 215.985275269 205.320495605 l 257,4,5
 230.118962852 181.746929801 230.118962852 181.746929801 254.461345304 167.8734649 c 128,-1,6
 278.803727755 154 278.803727755 154 308 154 c 0,7,8
 342 154 342 154 445.5 156.5 c 128,-1,9
 549 159 549 159 557 162 c 1,10,-1
 557 6 l 257,11,12
 538 3 538 3 308 3 c 0,13,14
 201 3 201 3 125.5 78 c 128,-1,15
 50 153 50 153 50 260 c 128,-1,16
 50 367 50 367 125.5 442.5 c 128,-1,17
 201 518 201 518 308 518 c 128,-1,18
 415 518 415 518 490.5 442.5 c 128,-1,19
 566 367 566 367 566 260 c 256,0,1
230.301010132 334.261138916 m 257,20,-1
 387.263824463 332.201263428 l 257,21,22
 355.543071057 367 355.543071057 367 308 367 c 0,23,24
 261.555266097 367 261.555266097 367 230.301010132 334.261138916 c 257,20,-1
EndSplineSet
EndChar

StartChar: f
Encoding: 102 102 72
Width: 512
VWidth: 0
Flags: W
LayerCount: 2
Fore
SplineSet
464 752 m 1,0,-1
 464 584 l 1,1,2
 433 610 433 610 393 610 c 0,3,4
 344 610 344 610 312 573 c 1,5,-1
 312 511 l 1,6,-1
 409 511 l 1,7,-1
 409 359 l 1,8,-1
 312 359 l 1,9,-1
 312 -3 l 1,10,-1
 145 -3 l 1,11,-1
 146.882149047 359 l 1,12,-1
 50 359 l 1,13,-1
 50 511 l 1,14,-1
 147.672443674 511 l 1,15,-1
 148 574 l 1,16,17
 172 657 172 657 239 709 c 128,-1,18
 306 761 306 761 393 761 c 0,19,20
 430 761 430 761 464 752 c 1,0,-1
EndSplineSet
EndChar

StartChar: g
Encoding: 103 103 73
Width: 620
VWidth: 0
Flags: W
LayerCount: 2
Fore
SplineSet
309.954681396 366.982788086 m 256,0,1
 297.062463827 366.765593127 297.062463827 366.765593127 286 364 c 1,2,-1
 286 364.828063965 l 257,3,4
 248.869123284 357.354775556 248.869123284 357.354775556 224.934561642 328.186335851 c 128,-1,5
 201 299.017896147 201 299.017896147 201 260 c 0,6,7
 201 221.582847844 201 221.582847844 224.96034584 192.60261765 c 128,-1,8
 248.920691681 163.622387456 248.920691681 163.622387456 286 156.169952393 c 1,9,-1
 286 157 l 257,10,11
 297.062196755 154.234450811 297.062196755 154.234450811 309.954711914 154.017227173 c 0,12,13
 322.210032381 154.233331655 322.210032381 154.233331655 334 157.131896973 c 1,14,-1
 334 156.169952393 l 257,15,16
 371.079300145 163.622388129 371.079300145 163.622388129 395.039650073 192.602619608 c 128,-1,17
 419 221.582851088 419 221.582851088 419 260 c 0,18,19
 419 299.017892878 419 299.017892878 395.065434275 328.186333878 c 128,-1,20
 371.130868549 357.354774877 371.130868549 357.354774877 334 364.828063965 c 1,21,-1
 334 363.864593506 l 257,22,23
 322.216526098 366.766523343 322.216526098 366.766523343 309.954681396 366.982788086 c 256,0,1
308.905792236 3.00155997276 m 256,24,25
 308.453063965 3.00000035763 308.453063965 3.00000035763 308 3 c 256,26,27
 306.222595216 3 306.222595216 3 304.45123291 3.02363610268 c 256,28,29
 303.724022177 3.03060795521 303.724022177 3.03060795521 300.34942627 3.04071426392 c 0,30,31
 263.240750405 3.1518469626 263.240750405 3.1518469626 259 4 c 0,32,33
 161 11 161 11 105.5 82.5 c 128,-1,34
 50 154 50 154 50 260 c 0,35,36
 50 362.425072359 50 362.425072359 119.433726251 436.48375942 c 128,-1,37
 188.867452501 510.542446481 188.867452501 510.542446481 290.128723145 517.397338867 c 0,38,39
 296.257667708 517.897778372 296.257667708 517.897778372 304.451171875 517.976379395 c 0,40,41
 306.222671509 518 306.222671509 518 308 518 c 256,42,43
 308.453094482 518 308.453094482 518 308.905517578 517.998413086 c 256,44,45
 309.925628662 518 309.925628662 518 312 518 c 0,46,47
 418.980528186 518 418.980528186 518 494.288781262 442.960577535 c 128,-1,48
 569.597034338 367.921155069 569.597034338 367.921155069 569.99810791 261 c 0,49,-1
 569.998596191 260.868469238 l 258,50,51
 569.999969483 260.434417724 569.999969483 260.434417724 570 260 c 256,52,53
 570 256.734680175 570 256.734680175 569.919250488 253.488677979 c 258,54,-1
 567 -18 l 257,55,56
 543 -101 543 -101 477.5 -153 c 128,-1,57
 412 -205 412 -205 325 -205 c 0,58,59
 154 -205 154 -205 120 -196 c 1,60,-1
 120 -28 l 257,61,62
 132 -38 132 -38 211 -46 c 128,-1,63
 290 -54 290 -54 325 -54 c 0,64,65
 351 -54 351 -54 377.5 -44 c 128,-1,66
 404 -34 404 -34 419 -17 c 1,67,-1
 419 25.9655418396 l 257,68,69
 368.307043802 3 368.307043802 3 312 3 c 0,70,71
 309.925842285 3 309.925842285 3 308.905792236 3.00155997276 c 256,24,25
EndSplineSet
EndChar

StartChar: h
Encoding: 104 104 74
Width: 597
VWidth: 0
Flags: W
LayerCount: 2
Fore
SplineSet
50 768 m 257,0,-1
 219 768 l 257,1,-1
 219 512 l 257,2,3
 258 524 258 524 299 524 c 0,4,5
 386 524 386 524 453 472 c 128,-1,6
 520 420 520 420 544 337 c 1,7,-1
 547 6 l 257,8,-1
 380 6 l 257,9,-1
 380 336 l 257,10,11
 348 373 348 373 299 373 c 0,12,13
 251 373 251 373 219 338 c 1,14,-1
 219 6 l 257,15,-1
 50 6 l 257,16,-1
 50 768 l 257,0,-1
EndSplineSet
EndChar

StartChar: i
Encoding: 105 105 75
Width: 252
VWidth: 0
Flags: W
LayerCount: 2
Fore
SplineSet
50 512 m 257,0,-1
 202 512 l 257,1,-1
 202 -2 l 257,2,-1
 50 -2 l 257,3,-1
 50 512 l 257,0,-1
50 772 m 257,4,-1
 202 772 l 257,5,-1
 202 630 l 257,6,-1
 50 630 l 257,7,-1
 50 772 l 257,4,-1
EndSplineSet
EndChar

StartChar: j
Encoding: 106 106 76
Width: 419
VWidth: 0
Flags: W
LayerCount: 2
Fore
SplineSet
50 -195 m 257,0,-1
 50 -27 l 257,1,2
 81 -53 81 -53 121 -53 c 0,3,4
 170 -53 170 -53 202 -16 c 1,5,-1
 202 517 l 257,6,-1
 369 517 l 257,7,-1
 366 -17 l 257,8,9
 342 -100 342 -100 275 -152 c 128,-1,10
 208 -204 208 -204 121 -204 c 0,11,12
 84 -204 84 -204 50 -195 c 257,0,-1
214 772 m 257,13,-1
 366 772 l 257,14,-1
 366 630 l 257,15,-1
 214 630 l 257,16,-1
 214 772 l 257,13,-1
EndSplineSet
EndChar

StartChar: k
Encoding: 107 107 77
Width: 753
VWidth: 0
Flags: W
LayerCount: 2
Fore
SplineSet
61 774 m 257,0,-1
 202 774 l 257,1,-1
 202 317 l 257,2,-1
 447 529 l 257,3,-1
 640 527 l 257,4,-1
 379 284 l 257,5,-1
 649 -3 l 257,6,-1
 463 -2 l 257,7,-1
 259 226 l 257,8,-1
 202 154 l 257,9,-1
 202 -2 l 257,10,-1
 61 -2 l 257,11,-1
 61 774 l 257,0,-1
EndSplineSet
EndChar

StartChar: l
Encoding: 108 108 78
Width: 419
VWidth: 0
Flags: W
LayerCount: 2
Fore
SplineSet
369 6 m 257,0,1
 335 -3 335 -3 298 -3 c 0,2,3
 211 -3 211 -3 144 49 c 128,-1,4
 77 101 77 101 53 184 c 257,5,-1
 50 761 l 257,6,-1
 217 761 l 257,7,-1
 217 185 l 1,8,9
 249 148 249 148 298 148 c 0,10,11
 338 148 338 148 369 174 c 257,12,-1
 369 6 l 257,0,1
EndSplineSet
EndChar

StartChar: m
Encoding: 109 109 79
Width: 924
VWidth: 0
Flags: W
LayerCount: 2
Fore
SplineSet
50 522 m 257,0,-1
 219 522 l 257,1,-1
 219 512 l 257,2,3
 258 524 258 524 299 524 c 0,4,5
 386 524 386 524 453 472 c 128,-1,6
 520 420 520 420 544 337 c 1,7,-1
 547 6 l 257,8,-1
 380 6 l 257,9,-1
 380 336 l 257,10,11
 348 373 348 373 299 373 c 0,12,13
 251 373 251 373 219 338 c 1,14,-1
 219 6 l 257,15,-1
 50 6 l 257,16,-1
 50 522 l 257,0,-1
381 429 m 257,17,-1
 546 512 l 257,18,19
 585 524 585 524 626 524 c 0,20,21
 713 524 713 524 780 472 c 128,-1,22
 847 420 847 420 871 337 c 1,23,-1
 874 6 l 257,24,-1
 707 6 l 257,25,-1
 707 336 l 257,26,27
 675 373 675 373 626 373 c 0,28,29
 578 373 578 373 546 338 c 1,30,-1
 546 6 l 257,31,-1
 377 6 l 257,32,-1
 381 429 l 257,17,-1
EndSplineSet
EndChar

StartChar: n
Encoding: 110 110 80
Width: 597
VWidth: 0
Flags: W
LayerCount: 2
Fore
SplineSet
50 522 m 257,0,-1
 219 522 l 257,1,-1
 219 512 l 257,2,3
 258 524 258 524 299 524 c 0,4,5
 386 524 386 524 453 472 c 128,-1,6
 520 420 520 420 544 337 c 1,7,-1
 547 6 l 257,8,-1
 380 6 l 257,9,-1
 380 336 l 257,10,11
 348 373 348 373 299 373 c 0,12,13
 251 373 251 373 219 338 c 1,14,-1
 219 6 l 257,15,-1
 50 6 l 257,16,-1
 50 522 l 257,0,-1
EndSplineSet
EndChar

StartChar: o
Encoding: 111 111 81
Width: 616
VWidth: 0
Flags: W
LayerCount: 2
Fore
SplineSet
308.905792236 3.00155997276 m 260,0,1
 308.453063965 3.00000035763 308.453063965 3.00000035763 308 3 c 256,2,3
 306.222595216 3 306.222595216 3 304.45123291 3.02363610268 c 256,4,5
 296.26090442 3.10215726496 296.26090442 3.10215726496 290.134063721 3.60223269463 c 0,6,7
 188.939632402 10.4492492647 188.939632402 10.4492492647 119.469816201 84.3359479009 c 128,-1,8
 50 158.222646537 50 158.222646537 50 260 c 0,9,10
 50 362.425072359 50 362.425072359 119.433726251 436.48375942 c 128,-1,11
 188.867452501 510.542446481 188.867452501 510.542446481 290.128723145 517.397338867 c 0,12,13
 296.257667708 517.897778372 296.257667708 517.897778372 304.451171875 517.976379395 c 0,14,15
 306.222671509 518 306.222671509 518 308 518 c 256,16,17
 308.453094482 518 308.453094482 518 308.905517578 517.998413086 c 256,18,19
 309.925628662 518 309.925628662 518 312 518 c 0,20,21
 419 518 419 518 494.5 442.5 c 128,-1,22
 570 367 570 367 570 260 c 128,-1,23
 570 153 570 153 494.5 78 c 128,-1,24
 419 3 419 3 312 3 c 0,25,26
 309.925842285 3 309.925842285 3 308.905792236 3.00155997276 c 260,0,1
309.954681396 366.982788086 m 260,27,28
 297.062463827 366.765593127 297.062463827 366.765593127 286 364 c 1,29,-1
 286 364.828063965 l 257,30,31
 248.869123284 357.354775556 248.869123284 357.354775556 224.934561642 328.186335851 c 128,-1,32
 201 299.017896147 201 299.017896147 201 260 c 0,33,34
 201 221.582847844 201 221.582847844 224.96034584 192.60261765 c 128,-1,35
 248.920691681 163.622387456 248.920691681 163.622387456 286 156.169952393 c 1,36,-1
 286 157 l 257,37,38
 297.062196755 154.234450811 297.062196755 154.234450811 309.954711914 154.017227173 c 0,39,40
 322.210032381 154.233331655 322.210032381 154.233331655 334 157.131896973 c 1,41,-1
 334 156.169952393 l 257,42,43
 371.079300145 163.622388129 371.079300145 163.622388129 395.039650073 192.602619608 c 128,-1,44
 419 221.582851088 419 221.582851088 419 260 c 0,45,46
 419 299.017892878 419 299.017892878 395.065434275 328.186333878 c 128,-1,47
 371.130868549 357.354774877 371.130868549 357.354774877 334 364.828063965 c 1,48,-1
 334 363.864593506 l 257,49,50
 322.216526098 366.766523343 322.216526098 366.766523343 309.954681396 366.982788086 c 260,27,28
EndSplineSet
EndChar

StartChar: p
Encoding: 112 112 82
Width: 512
VWidth: 0
Flags: W
LayerCount: 2
Fore
SplineSet
202 -202 m 257,0,-1
 50 -202 l 257,1,-1
 50 509 l 257,2,-1
 202 509 l 258,3,4
 210 510 210 510 226 510 c 0,5,6
 333 510 333 510 408.5 435 c 128,-1,7
 484 360 484 360 484 253 c 128,-1,8
 484 146 484 146 408.5 70.5 c 128,-1,9
 333 -5 333 -5 226 -5 c 0,10,11
 210 -5 210 -5 202 -4 c 1,12,-1
 202 -202 l 257,0,-1
202 356 m 257,13,-1
 202 149 l 257,14,15
 214 146 214 146 226 146 c 256,16,17
 271 146 271 146 302 177 c 128,-1,18
 333 208 333 208 333 253 c 0,19,20
 333 297 333 297 302 328 c 128,-1,21
 271 359 271 359 226 359 c 0,22,23
 214 359 214 359 202 356 c 257,13,-1
EndSplineSet
EndChar

StartChar: q
Encoding: 113 113 83
Width: 512
VWidth: 0
Flags: W
LayerCount: 2
Fore
SplineSet
332 -202 m 257,0,-1
 332 -4 l 257,1,2
 324 -5 324 -5 308 -5 c 0,3,4
 201 -5 201 -5 125.5 70.5 c 128,-1,5
 50 146 50 146 50 253 c 128,-1,6
 50 360 50 360 125.5 435 c 128,-1,7
 201 510 201 510 308 510 c 0,8,9
 324 510 324 510 332 509 c 2,10,-1
 484 509 l 257,11,-1
 484 -202 l 257,12,-1
 332 -202 l 257,0,-1
332 356 m 257,13,14
 320 359 320 359 308 359 c 256,15,16
 263 359 263 359 232 328 c 128,-1,17
 201 297 201 297 201 253 c 0,18,19
 201 208 201 208 232 177 c 128,-1,20
 263 146 263 146 308 146 c 0,21,22
 320 146 320 146 332 149 c 257,23,-1
 332 356 l 257,13,14
EndSplineSet
EndChar

StartChar: r
Encoding: 114 114 84
Width: 587
VWidth: 0
Flags: W
LayerCount: 2
Fore
SplineSet
50 522 m 257,0,-1
 219 522 l 257,1,-1
 219 512 l 257,2,3
 258 524 258 524 299 524 c 0,4,5
 379 524 379 524 443.5 473 c 128,-1,6
 508 422 508 422 537 345 c 1,7,-1
 372 345 l 257,8,-1
 372 344.316375732 l 257,9,10
 341.439996845 373 341.439996845 373 299 373 c 0,11,12
 251 373 251 373 219 338 c 1,13,-1
 219 6 l 257,14,-1
 50 6 l 257,15,-1
 50 522 l 257,0,-1
EndSplineSet
EndChar

StartChar: s
Encoding: 115 115 85
Width: 508
VWidth: 0
Flags: W
LayerCount: 2
Fore
SplineSet
68.6148213609 47 m 257,0,-1
 135.614821361 159 l 257,1,2
 142.614821361 152 142.614821361 152 157.614821361 147 c 0,3,4
 197.824747109 129.548373007 197.824747109 129.548373007 229.239821361 133.875 c 128,-1,5
 260.654895613 138.201626993 260.654895613 138.201626993 280.614821361 162 c 0,6,7
 303.579967526 188.924654124 303.579967526 188.924654124 259.226863933 200.724012247 c 0,8,9
 247.41210838 203.86711883 247.41210838 203.86711883 204.614821361 211 c 257,10,11
 138.592639749 237.305712986 138.592639749 237.305712986 98.9111176572 271.703703704 c 128,-1,12
 59.2295955651 306.101694422 59.2295955651 306.101694422 50.9851917313 347.962962963 c 128,-1,13
 42.7407878974 389.824231504 42.7407878974 389.824231504 80.6148213609 434 c 0,14,15
 127.802131124 490.924373683 127.802131124 490.924373683 228.114821361 502.25 c 128,-1,16
 328.427511597 513.575626317 328.427511597 513.575626317 423.614821361 473 c 0,17,18
 441.948154694 465.142857143 441.948154694 465.142857143 445.614821361 462 c 1,19,-1
 378.614821361 332 l 257,20,21
 364.614821361 341.333333333 364.614821361 341.333333333 356.614821361 344 c 0,22,23
 316.147091968 359.644245723 316.147091968 359.644245723 295.989821361 355.875 c 128,-1,24
 275.832550754 352.105754277 275.832550754 352.105754277 255.614821361 328 c 0,25,26
 231.411537103 302.042751982 231.411537103 302.042751982 235.864821361 292.5 c 128,-1,27
 240.318105619 282.957248018 240.318105619 282.957248018 286.614821361 275 c 1,28,29
 326.418671279 258.275693312 326.418671279 258.275693312 355.31825477 243.432326704 c 128,-1,30
 384.217838261 228.588960097 384.217838261 228.588960097 410.775387952 208.743673296 c 128,-1,31
 437.332937643 188.898386495 437.332937643 188.898386495 448.85425477 169.336326704 c 128,-1,32
 460.375571897 149.774266914 460.375571897 149.774266914 457.511387952 125.287673296 c 128,-1,33
 454.647204007 100.801079678 454.647204007 100.801079678 432.614821361 75 c 0,34,35
 385.855098564 17.68163012 385.855098564 17.68163012 285.989821361 5.375 c 128,-1,36
 186.124544158 -6.93163011998 186.124544158 -6.93163011998 90.6148213609 34 c 0,37,38
 83.0763598224 36.1538461538 83.0763598224 36.1538461538 68.6148213609 47 c 257,0,-1
EndSplineSet
EndChar

StartChar: t
Encoding: 116 116 86
Width: 514
VWidth: 0
Flags: W
LayerCount: 2
Fore
SplineSet
464 6 m 257,0,1
 430 -3 430 -3 393 -3 c 0,2,3
 306 -3 306 -3 239 49 c 128,-1,4
 172 101 172 101 148 184 c 1,5,-1
 147.064117432 364 l 257,6,-1
 50 364 l 257,7,-1
 50 516 l 257,8,-1
 146.273834229 516 l 257,9,-1
 145 761 l 257,10,-1
 312 761 l 257,11,-1
 312 516 l 257,12,-1
 409 516 l 257,13,-1
 409 364 l 257,14,-1
 312 364 l 257,15,-1
 312 185 l 257,16,17
 344 148 344 148 393 148 c 0,18,19
 433 148 433 148 464 174 c 1,20,-1
 464 6 l 257,0,1
EndSplineSet
EndChar

StartChar: u
Encoding: 117 117 87
Width: 598
VWidth: 0
Flags: W
LayerCount: 2
Fore
SplineSet
548 8 m 257,0,-1
 379 8 l 257,1,-1
 379 18 l 257,2,3
 340 6 340 6 299 6 c 0,4,5
 212 6 212 6 145 58 c 128,-1,6
 78 110 78 110 54 193 c 1,7,-1
 51 524 l 257,8,-1
 218 524 l 257,9,-1
 218 194 l 257,10,11
 250 157 250 157 299 157 c 0,12,13
 347 157 347 157 379 192 c 1,14,-1
 379 524 l 257,15,-1
 548 524 l 257,16,-1
 548 8 l 257,0,-1
EndSplineSet
EndChar

StartChar: v
Encoding: 118 118 88
Width: 652
VWidth: 0
Flags: W
LayerCount: 2
Fore
SplineSet
50 511 m 257,0,-1
 202 511 l 257,1,-1
 326 144 l 257,2,-1
 450 511 l 257,3,-1
 602 511 l 257,4,-1
 402 0 l 257,5,-1
 250 0 l 257,6,-1
 50 511 l 257,0,-1
EndSplineSet
EndChar

StartChar: w
Encoding: 119 119 89
Width: 1044
VWidth: 0
Flags: W
LayerCount: 2
Fore
SplineSet
446 511 m 257,0,-1
 598 511 l 257,1,-1
 718 144 l 257,2,-1
 842 511 l 257,3,-1
 994 511 l 257,4,-1
 794 0 l 257,5,-1
 646 0 l 257,6,-1
 522 316.820007324 l 257,7,-1
 398 0 l 257,8,-1
 250 0 l 257,9,-1
 50 511 l 257,10,-1
 198 511 l 257,11,-1
 322 144 l 257,12,-1
 446 511 l 257,0,-1
EndSplineSet
EndChar

StartChar: x
Encoding: 120 120 90
Width: 724
VWidth: 0
Flags: W
LayerCount: 2
Fore
SplineSet
50 513 m 257,0,-1
 236 511 l 257,1,-1
 365.491546631 359.926544189 l 257,2,-1
 498 512 l 257,3,-1
 673 511 l 257,4,-1
 452.585205078 258.317260742 l 257,5,-1
 674 0 l 257,6,-1
 499 -2 l 257,7,-1
 362.290985107 154.804321289 l 257,8,-1
 229 2 l 257,9,-1
 51 -1 l 257,10,-1
 274.5 255.5 l 257,11,-1
 50 513 l 257,0,-1
EndSplineSet
EndChar

StartChar: y
Encoding: 121 121 91
Width: 652
VWidth: 0
Flags: W
LayerCount: 2
Fore
SplineSet
50 511 m 257,0,-1
 221 511 l 257,1,-1
 345 144 l 257,2,-1
 450 511 l 257,3,-1
 635 514 l 257,4,-1
 356 -200 l 257,5,-1
 208 -204 l 257,6,-1
 277.328125 0 l 257,7,-1
 50 511 l 257,0,-1
EndSplineSet
EndChar

StartChar: z
Encoding: 122 122 92
Width: 512
VWidth: 0
Flags: W
LayerCount: 2
Fore
SplineSet
50 10 m 257,0,-1
 50 162 l 257,1,-1
 293 366 l 257,2,-1
 50 366 l 257,3,-1
 50 518 l 257,4,-1
 503 518 l 257,5,-1
 503 366 l 257,6,-1
 301 162 l 257,7,-1
 503 162 l 257,8,-1
 503 10 l 257,9,-1
 50 10 l 257,0,-1
EndSplineSet
EndChar

StartChar: braceleft
Encoding: 123 123 93
Width: 419
VWidth: 0
Flags: W
LayerCount: 2
Fore
SplineSet
451 -85 m 1,0,1
 436 -92 436 -92 414 -92 c 0,2,3
 370 -92 370 -92 335.5 -50 c 128,-1,4
 301 -8 301 -8 289 58 c 1,5,-1
 288 228 l 1,6,-1
 179 358 l 1,7,-1
 288 485 l 1,8,-1
 289 655 l 1,9,10
 301 721 301 721 335.5 763 c 128,-1,11
 370 805 370 805 414 805 c 0,12,13
 436 805 436 805 451 798 c 1,14,-1
 451 663 l 1,15,16
 435 684 435 684 414 684 c 0,17,18
 390 684 390 684 373 654 c 1,19,-1
 374 470 l 1,20,-1
 292 369 l 1,21,-1
 373 228 l 1,22,-1
 373 58 l 1,23,24
 389 29 389 29 414 29 c 0,25,26
 435 29 435 29 451 50 c 1,27,-1
 451 -85 l 1,0,1
EndSplineSet
EndChar

StartChar: bar
Encoding: 124 124 94
Width: 252
VWidth: 0
Flags: W
LayerCount: 2
Fore
SplineSet
65 871 m 257,0,-1
 187 871 l 257,1,-1
 187 -99 l 257,2,-1
 65 -99 l 257,3,-1
 65 871 l 257,0,-1
EndSplineSet
EndChar

StartChar: braceright
Encoding: 125 125 95
Width: 419
VWidth: 0
Flags: W
LayerCount: 2
Fore
SplineSet
179 -85 m 1,0,-1
 179 50 l 1,1,2
 195 29 195 29 216 29 c 0,3,4
 241 29 241 29 257 58 c 1,5,-1
 257 228 l 1,6,-1
 338 369 l 1,7,-1
 256 470 l 1,8,-1
 257 654 l 1,9,10
 240 684 240 684 216 684 c 0,11,12
 195 684 195 684 179 663 c 1,13,-1
 179 798 l 1,14,15
 194 805 194 805 216 805 c 0,16,17
 260 805 260 805 294.5 763 c 128,-1,18
 329 721 329 721 341 655 c 1,19,-1
 342 485 l 1,20,-1
 451 358 l 1,21,-1
 342 228 l 1,22,-1
 341 58 l 1,23,24
 329 -8 329 -8 294.5 -50 c 128,-1,25
 260 -92 260 -92 216 -92 c 0,26,27
 194 -92 194 -92 179 -85 c 1,0,-1
EndSplineSet
EndChar

StartChar: asciitilde
Encoding: 126 126 96
Width: 644
VWidth: 0
Flags: W
LayerCount: 2
Fore
SplineSet
549 577 m 257,0,-1
 549 425 l 258,1,2
 548 421 548 421 532.5 403 c 128,-1,3
 517 385 517 385 485 364.5 c 128,-1,4
 453 344 453 344 421 344 c 2,5,-1
 321 344 l 2,6,7
 289 344 289 344 244.5 372 c 128,-1,8
 200 400 200 400 168 400 c 0,9,10
 145 400 145 400 115.5 386 c 128,-1,11
 86 372 86 372 68 358 c 2,12,-1
 50 344 l 1,13,-1
 50 496 l 257,14,15
 114 552 114 552 164 552 c 0,16,17
 197 552 197 552 244 524.5 c 128,-1,18
 291 497 291 497 324 497 c 0,19,20
 369 497 369 497 413 496.581054688 c 0,21,22
 443.666666667 496.767252604 443.666666667 496.767252604 477.666666667 516.871988932 c 128,-1,23
 511.666666667 536.97672526 511.666666667 536.97672526 530.333333333 556.98836263 c 2,24,-1
 549 577 l 257,0,-1
EndSplineSet
EndChar
